<mxfile host="app.diagrams.net" modified="2024-04-30T20:53:12.832Z" agent="Mozilla/5.0 (Windows NT 10.0; Win64; x64) AppleWebKit/537.36 (KHTML, like Gecko) Chrome/124.0.0.0 Safari/537.36" etag="apg0K26azLVyVlKujdI1" version="24.3.0" type="github">
  <diagram name="Page-1" id="g6VxAkHFpdCv1QISGNQX">
    <mxGraphModel dx="1240" dy="1092" grid="1" gridSize="10" guides="1" tooltips="1" connect="1" arrows="1" fold="1" page="1" pageScale="1" pageWidth="850" pageHeight="1100" math="0" shadow="0">
      <root>
        <mxCell id="0" />
        <mxCell id="1" parent="0" />
        <mxCell id="_MqUPr8f-RAkEZIioMhW-1" value="" style="rounded=0;whiteSpace=wrap;html=1;" vertex="1" parent="1">
          <mxGeometry x="450" y="130" width="340" height="190" as="geometry" />
        </mxCell>
        <UserObject label="&lt;a href=&quot;https://www.analog.com/en/resources/evaluation-hardware-and-software/evaluation-boards-kits/dc2754a.html&quot; class=&quot;details-container__title__link title-extraSmall&quot; target=&quot;_blank&quot; style=&quot;box-sizing: inherit; border: 0px; font-size: 1.25rem; margin: 0px; padding: 0px; vertical-align: baseline; color: rgb(33, 40, 54); text-decoration: underline; background-color: rgb(255, 255, 255); font-family: Barlow; font-style: normal; font-weight: 600; line-height: 1.75rem; font-variant-ligatures: normal; font-variant-caps: normal; letter-spacing: 0.15008px; orphans: 2; text-align: start; text-indent: 0px; text-transform: none; widows: 2; word-spacing: 0px; -webkit-text-stroke-width: 0px; white-space: normal;&quot;&gt;DC2754A&lt;/a&gt;" link="&lt;a href=&quot;https://www.analog.com/en/resources/evaluation-hardware-and-software/evaluation-boards-kits/dc2754a.html&quot; class=&quot;details-container__title__link title-extraSmall&quot; target=&quot;_blank&quot; style=&quot;box-sizing: inherit; border: 0px; font-size: 1.25rem; margin: 0px; padding: 0px; vertical-align: baseline; color: rgb(33, 40, 54); text-decoration: underline; background-color: rgb(255, 255, 255); font-family: Barlow; font-style: normal; font-weight: 600; line-height: 1.75rem; font-variant-ligatures: normal; font-variant-caps: normal; letter-spacing: 0.15008px; orphans: 2; text-align: start; text-indent: 0px; text-transform: none; widows: 2; word-spacing: 0px; -webkit-text-stroke-width: 0px; white-space: normal;&quot;&gt;DC2754A&lt;/a&gt;" id="_MqUPr8f-RAkEZIioMhW-2">
          <mxCell style="text;whiteSpace=wrap;html=1;" vertex="1" parent="1">
            <mxGeometry x="450" y="130" width="120" height="50" as="geometry" />
          </mxCell>
        </UserObject>
        <mxCell id="_MqUPr8f-RAkEZIioMhW-3" value="" style="rounded=0;whiteSpace=wrap;html=1;fontStyle=1" vertex="1" parent="1">
          <mxGeometry x="10" y="130" width="260" height="190" as="geometry" />
        </mxCell>
        <mxCell id="_MqUPr8f-RAkEZIioMhW-4" value="" style="rounded=0;whiteSpace=wrap;html=1;" vertex="1" parent="1">
          <mxGeometry x="340" y="440" width="260" height="190" as="geometry" />
        </mxCell>
        <UserObject label="Backplane" id="_MqUPr8f-RAkEZIioMhW-5">
          <mxCell style="text;whiteSpace=wrap;html=1;" vertex="1" parent="1">
            <mxGeometry x="340" y="440" width="120" height="50" as="geometry" />
          </mxCell>
        </UserObject>
        <UserObject label="KR260" id="_MqUPr8f-RAkEZIioMhW-6">
          <mxCell style="text;whiteSpace=wrap;html=1;" vertex="1" parent="1">
            <mxGeometry x="10" y="130" width="120" height="50" as="geometry" />
          </mxCell>
        </UserObject>
        <mxCell id="_MqUPr8f-RAkEZIioMhW-11" value="SDA&lt;br&gt;pin X to pin9&amp;nbsp;" style="edgeStyle=orthogonalEdgeStyle;rounded=0;orthogonalLoop=1;jettySize=auto;html=1;exitX=0.5;exitY=1;exitDx=0;exitDy=0;entryX=0;entryY=0.5;entryDx=0;entryDy=0;" edge="1" parent="1" source="_MqUPr8f-RAkEZIioMhW-7" target="_MqUPr8f-RAkEZIioMhW-1">
          <mxGeometry x="-0.2" relative="1" as="geometry">
            <Array as="points">
              <mxPoint x="270" y="250" />
              <mxPoint x="400" y="250" />
              <mxPoint x="400" y="225" />
            </Array>
            <mxPoint as="offset" />
          </mxGeometry>
        </mxCell>
        <mxCell id="_MqUPr8f-RAkEZIioMhW-23" value="3.3V/GND" style="edgeStyle=orthogonalEdgeStyle;rounded=0;orthogonalLoop=1;jettySize=auto;html=1;exitX=0.083;exitY=1.1;exitDx=0;exitDy=0;entryX=0.5;entryY=1;entryDx=0;entryDy=0;endArrow=none;endFill=0;exitPerimeter=0;" edge="1" parent="1" source="_MqUPr8f-RAkEZIioMhW-7" target="_MqUPr8f-RAkEZIioMhW-15">
          <mxGeometry relative="1" as="geometry">
            <Array as="points">
              <mxPoint x="290" y="297" />
              <mxPoint x="290" y="650" />
              <mxPoint x="530" y="650" />
            </Array>
          </mxGeometry>
        </mxCell>
        <mxCell id="_MqUPr8f-RAkEZIioMhW-7" value="PMOD" style="rounded=0;whiteSpace=wrap;html=1;rotation=-90;" vertex="1" parent="1">
          <mxGeometry x="180" y="220" width="160" height="20" as="geometry" />
        </mxCell>
        <mxCell id="_MqUPr8f-RAkEZIioMhW-8" value="" style="shape=image;verticalLabelPosition=bottom;labelBackgroundColor=default;verticalAlign=top;aspect=fixed;imageAspect=0;image=data:image/png,iVBORw0KGgoAAAANSUhEUgAAAPAAAAGICAYAAAB/U22KAAAgAElEQVR4Ae2dCVwU5f/H6ZfW72fmfRXZoaWVlZVl2qWkpoaKKKampHlrpubRpSkaiICI4hWeeB+AqIESHmgeeKMoggEKBnIoR3Kuu8Pn/5892Nmd3Z1ZmAV2+fJ6Pa+deeY7z/F55s3zzDPPYQf6IwVIAYMKbOs9B3/OXmPwmtSeF9bsh/8rI8wO1s7sO+gGUqCWKEAA15KCpmzapgIEsG2WK+WqlihAANeSgqZs2qYCBLBtlivlqpYoQADXkoKusmwq8hA4ZjOmh5Yoo2Ry0rBu5l587rAFg767gNNZZVWWlNoQEQFcG0q5KvOouI/FH3igz7oigMnHhgFL0e6r84g8ewebxq+Ffd+LuK2oygTZdlwEsG2Xb9Xnjgtw6T9YPuYogjNUta4i7iTebxGMYFXlXPVps8EYCWAbLNRqzRIXYE1CmBIkR8fD98tVaDssFumM5gL9VlYBAriyCtL9ugoYAJjJuoaxnVbBvskK9PNKwQMCWFezSpwRwJUQj241oIABgDVWpYmXMOAZP0yMlGu86LeSChDAlRSQbgdkly5hqvvfqppVkY3f3l+M/ptLwOSmY8/vt5Cg4ZV5iJWfLcZnKx+SbBIpQABLJGRtDqb0eDjaPheC4AdlYLKuY9izyzHlmBzIv4mRzy7HmAOFYFvNpQnn0bflKvxwlrqhpXpeCGCplKzN4ciysNLRFw2a+eH5pp540fki4pS1LoM7ew7i7Va+eKPz73ixhR/6LE5FXm3WSuK8E8ASClpQAJw9W1udHH/szMDWoCKc1NPg9JF8bN+cieAIRrQ+cXESFowNB0UAS1i4Z84AdnbkpNDg008lLBgbDooAlrBwNQA/eAAUFZGrqAazZgGffCJhwdhwUASwhIWrAbi4WMJAa2FQv/4KUA0sruAJYHE6ibIigEXJJGhUYwBW3MI6VwdM2ZOp7EXXJlyBO5vHoMeMUGQlb8To7nMQbmp4qPwW1o+dhC2p0o9gIYC1pVLpIwK40hIqA6gxAEOOmPnvoFHvtUjjsqeIh+eHzdA3IB2yG4vQqb4TthYZybvsDkImd0T9J7rAM0H6z2cEsBHdK+JNAFdENf49NQdgQJGwBB827omVnNpTHrsQ77VywY4HgNwUwIUn8GvXNug4dBg+ataVAOYXdc3yIYClKY+aBDCYFKzs2QwOy+9AVX/KcWluRzw3aj/Y8WQmAS66gagTKSgpCoXrMwSwNE+HBUMhgKURt0YBDAaZm53QqttSJLEEy85i9usvY8pR1UuvSYA1cpQQwBopavQvASxN8dQsgAHk7sFw+4+wJEGB0qjv0K7DHJyVqfJKAAuXudWsC00ACxemGIsaBzAKETa2Dbp6xODQxJfxnts1aOZnEMDCJUoAC2tkUxY1D2Cg5MQ0vPbBQPRv1x1LE7W9yQSw8KNHAAtrZFMWNRFgyC/g5w51UV/vk5IS4Lp2sLPjuDrtMPO0uo3Nlgy9A1vH80lNaGnKqUYCLE3WJA+FvgNLKCkBLI2YVg/wxo0AOzWtCv4IYAlFJoClEdOqAdY8BAsXSiOGQCgEsIBA5lzWlB1NZjBHNb6tVQM8caJqPmmHDvyMWcCHAJZQVAJYGjErAjDzIBw/femGk6XSpKFCoZSWAo0bAz//rIL4/PkKBWPOTQSwOWoJ2BLAAgKJvGwuwExWFNwcWqBOU1eod3QRGZPEZsHBwP/+Bzx8qJoPydbGFv4jgCUUmACWRkxzAJadWwKHtu3QZ1RftG1ZzQA7OQHDhqlECAwEGjQALPw+RQBL88wpQyGApRHTHIDl8VGITCiA7Mo8vN2qGgFml2GpWxc4dEglArscCQvw1q3SiGIkFALYiDAV8SaAK6Ia/x5zANbcLa9ugFeuBFq2BBTaUVoYPx7o1k2TRIv8EsASykoASyOmVQLcuTPw/fe6Apw7Bzz2GJCUpOsv4RkBLKGYBLA0YlodwAkJql7nmBi+AOznpLlz+f4S+RDAEgnJBkMASyOmWIAjf/8B91MTlJHqN6ELc7NwwHucNAkSCoUF9M03DVv5+gL29gDDXZPHsGlFfAngiqhm5B6LAqzIwfrFmzAqLEe9MoQ2EfKkaAyZGYmwghKErtwM1z/0bB79A8+52+F2TQEm7wamTA3ElGP5Ogu1yRPPYvBPJ3H6EYCCeEyfug6dJ6ncB5PX48NpWzHI9wwis9QPYnECZnJsNLadJ23Edye1y3LKMpKwbNkOvDfCF037eaH16ECM3ByPJM5Yf21OVEdiAb4asQW+LvZKiLkAs/CuHt0BJwKrZjQUGjUC3nkHGDFC5Tp2BIYOVR0PHqxqRm/apJ9NSc4JYElkVAViUYDB4PqWANSfdBJxnH4SQIHTa1aixa/XkM0UYd0cD7yzKaN8vqoyZbJETBjig69PycFkn4NDTzc87rwbgRnaWkF29RBecdmPMBas/Evo09sfo8MSceRSMo5cSkL4iQuY/p0PGkw9rYq/4Ar69V4B14MaG9aOdbdxJVsVLpMZi+FDPfGq2ynsi89FRk4+rkVHY+RoT7RbnoR8I9qLBZi9nQsxe66BN2qzm5HQLeDduzcwfDgwejTg6qpqTvftqzpn/diOrOPHLRAxQABLKKtlAQYU96Lh4Pg75idqwUNJEiYNW4YxZ9ghSCIB7r0SH0/xxjNzr+CO+p8BD+A+evGwq8lcO4yXe2/HBnYxKBbgPmswN4GTFh0tZYj0XY7G35/DLZ1/OEDpzRPoO/skzhiphc0BmI1SA3Hq9TPKmrdK4dXJM7uDW6kK4NOn9a9Y5JwAllBWSwMMpgCb53qhQ8A/0Dz7D0+Fwt71MP5SeogEuE8glsddxsBBPugflqtskgsBzBTnYN+yNXh6VCTOKpvZAgDL7mDqcE8MjNA2p8VKvWX4YTyo2wpo0UK0O9/+KSzqZodw7/Fio7GIXVlpKTY/9jYehh2xSPj6gRLA+opU4tziAAPIOxkC+5FaYHcu8EGnzZoms3iA/bMZpBzejWcHbkdAGgMewL0Wou7n7qjXW+We7OODDrPCsDFR/a+DrYH1bJS2jjuwLrcMKL6GgX1WYFqMpvplcDfmKtbuv4DVoeexKjQWZ3LKDKq9eNYDLHx1J7BjhyhXuGENVjvbY/e4ruXvxAYDrgJPeakMbnbdkXryahXERk1oSUWuCoBRkowpX63A5EtyMA8uo59zIPzSNc3YYmz40QNvbbin9w78N8a5LMWYs+p34D6B8M8uA5h8bJvvi+ZzLiDuit47cJ+1+Pl6EfIeFuD6X5H4yMUfww8/0IarbEKvxpxrRcgrKOE4map1IIvH1wN9MOq0ZvUoBtfCwvDVwiAMc9uEFz9fhTm6L/PlZWFOE1r/nVfTnNb0TpcHWkUH5QCfjq2SGKkGllDmKgEYDC6sW4MXvG/hZsgWPDv3CrR9UXLsc/fGcz6J0JmUUxADJ8dV+CFOoerE0gAMgMmOxZcuXnDw3IU23E4snXfgMqQdDYL9FwGYG8upgU29AzMF2PjzErTxTVSun6wjc8kNDO1feYD14dXEUZ0QE8CaUtD+0ppYWi2UR4qUU/hw6HY4T/WD60nupjxluHdoJ5oM3onVt9WgMSW4uD0QTb48iMMlLLDn4MABGChD+rEg2H/G9kxzeqF1AGZJz8fW+T6oN+4YotkoBTuxgMLrx9Cp3wq4BKciXZ0cyP7FX6HBaPf5avwcr2k56GZQTA1cVlZmssNKA3FBToZu4BY+I4D5AhPA+pow+Vg9ywN1hofjmAYMjY0iB7v91qNVb0/Yj1iJts6L0WDYdiy8XKj87ssHmIWzAHvdl6GuKYDB9oJfQj8nD3QOTEep8h3YDXbd+a7lkgSo/q2UIePKaYyY7ItGjr5oO3I5WvV1R4uxuzE3KhvGFp0RBTDDIPmS6Y6if+KiIZdx/8FpRLLcLwHM15YA5msi6CMvyMeNhHRcSXmIAsMVnWAY0hkwKMzJxY3ETCQ8kOkMIDEUhxiADd1XE/wIYH4pEMB8TWzahwAWX7zUiSVeK0HLqunEEkyG1RsQwOKLkAAWr5WgJQEsKJEoAwJYlExKIwJYvFaClgSwoESiDAhgUTIpjQhg8VoJWhLAghKJMiCARcmkNCKAxWslaEkAC0okyoAAFiWT0ogAFq+VoCUBLCiRKAMCWJRMSiMCWLxWgpYEsKBEogwIYFEyKY0IYPFaCVoSwIISiTIggEXJpDQigMVrJWhJAAtKJMrAHICZnAvYOGc4+nT7BA79x2DR/kT1ME5RUUluRCOx+JLSSCy+JjbtIxpgJgUb+rdCGydP7DsdjWMbp+C9Zu0w9YixUdaWl40A5mtMAPM1sWkf0QDnBWPcWwOx6rZm0YAi7BvZEu1nVs1yNoYKgQDmq0IA8zWxaR/RAOurUHoBv3RshB4rU/SvVNk5AcyXmgDma2LTPhUCWHEX+8Z3QPP35uJ09bWgQQDzH00CmK+JTfuYDXDBVawd8gpavf89wtI1zenqkYgA5utOAPM1sWkfcwBmMiPwY5dWaDNwBS4YW2i6CtUigPliE8B8TWzaRzTA8jj4fdYCbUfsxG3N2nnVrAwBzC8AApiviWgfRdplfD0tFBvS9JflYHAtaC96rr2lDkuGmyeiMHL6arR2WoKmLmvw+bKLOP8vd+lXARtFFvzdAvHDeS1NJWnxcHPfhNdcvNBkoB/emrkfnmdzTH6rFQtwadR3aPO4HezsuO5xPDchQrQ+UhsSwHxFCWC+JuJ9FFlYNMEDnbdm6+6p9CgVs1y9MSiykF3tCrF7t6DloE34/tAd3Mx6iOS4WMya6oWmM6LVW7mIsHn0D+a4emBgJLvyOyBPvYj+Lt54z+cCIm/n415GBsKD9+PdAb7of/C+dolavdyIBVjvthpxSgDzi4EA5mtihg+D20GBaDjuOMrXWGc3Ybn4B14ash8HiwAmJwbOA5Zh1CndXRSYjMsYPnEv1qQwomzABZgpBLvovP3C68jUqfzLkBaxGy2dg7DbyDsrASy+eGkopXitBC1r6lBKFlCnAavxY/lC6qUI9fRF+5UpyvWji04Eo6lTCEJ0+dXJrxgbHYBL4uHqxG6opqqNdQIrjsfXzt5wNXQNwMavT+BW/XeBt982y+1q8inWvvkN1r49ttrcmo5jlDszJEZc0MmypU4IYAmVrakAAyUIcfdFOzWwyI/FEOcALFBuklaGzP1bUc/1T9WeRwb1EGMDcAFmxyj36G1k7WdFOuaO8UDPUMMfbH2m3cXqNksBHx+z3NUxP+PMkh0447O7Wt3h6f6QFZr4b2hQ44p5EsAV083gXTUXYKDoUhhe/ioMR2VluBe2A61mRCNZ/cm04NgeNBp8AOH6a0xzcinGhgsw2N0gvvDDt5e1HVrlwcmSMXmoJ5wjdfaPKL9szU3o8kxU0QEBLKHQNRlgKNLw8xg/jD2bDf+ZS+F0qKB8fWbltqV9VVuv6MhRnIjJrisw/lSJamtTARsdgBU58J22GK+vvcvrcS6JjcCrfTdz9nTSiRUEsK4eps4IYFPqmHmtRgMMBjd3bMALP+7Gx0P3IYTbemUKsc/TD40nRWC/Zg+U4vvY47sWDYcfRBi7H7AYG24nFoDc8+F41XEVRh/ORL6yI6sM+ckxGP21J9r7JSLXiL4EsBFhDHgTwAZEqahXzQYYYDIvoFefhWiz/DavVkRBOla7/47m7JYsXy2HvaM7mo0PRYBmO1FWFCEbPYDZz1PJfx2Bo+sSNHRegXZf+aDRgJVwDLiJJBPNdQJY/BNIAIvXStCypgMsmAH2221BHm78nY7Y9OLyTcT17xNjo3MPI8eDjCxcu52HHBPgau4hgDVKCP8SwMIaibawBYBFZ9aChgSweHEJYPFaCVoSwIISiTIggEXJpDQigMVrJWhJAAtKJMqAABYlk9KIABavlaAlASwokSgDAliUTEojAli8VoKWBLCgRKIMCGBRMimNCGDxWglaEsCCEokyIIBFyaQ0IoDFayVoSQALSiTKgAAWJZPSiAAWr5WgJQEsKJEoAwJYlExKIwJYvFaClgSwoESiDAhgUTIpjQhg8VoJWhLAghKJMiCARcmkNCKAxWslaEkAC0okyoAAFiWT0ogAFq+VoCUBLCiRKAMCWJRMSiMCWLxWgpYEsKBEogwIYFEyKY0IYPFaCVoSwIISiTIggEXJpDQigMVrJWhJAAtKJMqAABYlk9KIABavlaAlASwokSgDAliUTEojAli8VoKWBLCgRKIMCGBRMimNCGDxWglaEsCCEokyIIBFyaQ0IoDFayVoSQALSiTKgAAWJZPSiAAWr5WgJQEsKJEoAwJYlExKIwJYvFaClgSwoESiDAhgUTIpjQhg8VoJWhLAghKJMiCARcmkNCKAxWslaEkAC0okyoAAFiWT0ogAFq+VoCUBLCiRKAOzAGYe4Pz6mfjy827o1mck5ofc4i9aLypW6zQigCUsNwJYGjHFAyzHTb/P8OzrI7EqMhontk7Fe83ewI9nDG+aJk3qalYoBLCE5UEASyOmaIBlJzGtXTt8e6xQHXEJLmxeiIBTOdIkxApCIYAlLCQCWBoxxQKsSPbBJy2/xNrDKzF9WH8MHPE9Vp/KKt91UZrU1OxQCGAJy4cAlkZMsQDLoufgtfqN8MJHE7H6QARC/VzxRrO38fOZImkSYgWhEMASFhIBLI2YogE+9yNef/IN/HxBs4l4EQ6PfwEvTIyUJiFWEAoBLGEhEcDSiCkWYCZ9FXrU7wLPWwp1xHJc+PlNtBy5T5qEWEEoBLCEhUQASyOmWIChuAXf7k3R6ZezYPcgR95fmPN2c3wRcFeahFhBKASwhIVUGwEuSImDm/tmdBjijcYDfPHm7DD8frO4vCOp8PY1zJobgLbOS9DYyQ9vzz4I/9jC8uuG5BcNMICS6+vx1eut0LpjZ7z1XEu8NmIT4kXsQWwoXmv0I4AlLLXaBrAs+Sx6OC/Fp6uuIColH+np/2Dnmo1oNiAQfncYQJaC71290HX1DVzKKER2dib+CNyKZwfuwqasMqPKmwOwMhDmIe7euIobqfnQNKaNBm5jFwhgCQu0VgHMFCBwnhdae8ZD56srk4f1i9ZhyP5sPMo4i0/7bMTSe4xWZUUm1noHwTvWOGpmA6wNvdYdEcASFnmtArgkDsMHeGPESRPtVUUmlkz1RNOxezBz91WEJ+ThIYdlY9JvGnkMt+t1AF57zSy3rcHHWNVuJFa99nWtcR71+2LP4PnGpJTU/8Ka/fB/ZYTZYdqZfUc13VCbAGZyLqBX75WYfcN4TcoWA1OQiV2b96PPBD807OGG/zr/jsGb/0aqidu8Z6RjWdtVwMqVZrkbUxfh/IpgnF+5r9a4Y/M2IP3SrSp54gngKpG5iiIpvg4Xx6UYG635Bms4XoVCW+XKHz5AVPhhfOTkiR4huUbfVyvUhGbuYveUXhi/Lc1kB5nhVJKvGAUIYDEqWYuNIhfLZyzG67//A91GtAwRy1biZZ+b+PvgNjSYEAXd1105Dnv7wt7b+Kwh8wFWICmgH1r8py4+8k4y+o/BWqStqekkgGtqyVQoXWXI/isUL/Rbh5mncqGaTiBDwvE/0NFxOcafLQaTeQUDBnqhy4oYnLlXglJZMRLO/4W+Lr4YeqzAaE1pLsCyOD/0esMZgz98igCuUFmKu4kAFqeTFVmV4GJoCN5xckdDlxVo4+KJegN+x6iDGShQ5qIMOXEXMXHmajz7xSI83sMDLVwDMS70H+RoW9a8/JoFcGkMFnd7E6ND7iDQ6WkCmKemdB4EsHRa1qyQFCVIuX0Pl5JzkfOo8kkTD3Ahon/tgo4Tw/GAKcJWArjy4psIgQA2IQ5d0iogFuD8qFl4940J2J+ah7y8DKxzfBpdfruG3CLTHWvamOjIHAUIYHPUqsW24gCW4fzcd9GgXj3UU7sn6zyGx5+oh+fGHqjF6lku6wSw5bS1qZDFAayfZWpC6ysi9TkBLLWiNhoeAVwzC5YAlqBcxMzuMTVDiMm+hnHT/8DOHO1kAubfFHjM34R+AbeQrh4hVXrpEDp7xuEhZLge+SecJqxAy35L0HzoWny+9BxO52nvB2S4eSIKI6evRmunJWjqsgafL7uI8/+qbAzFaUqKigFsKkS6JoUCBHBlVRQxu0dohpAi7TQ+6rMJyzLUcP17B79O9Yb9nLO4UL4SjQJn1wag3x8FKLoagfYDNmBmVDpScguRlnwLC2ctRYu5V3BX+SlIgdi9W9By0CZ8f+gObmY9RHJcLGZN9ULTGdGIUwD6cQrJQAALKVQ91wngSurOCM3uETFDSMYBmMm/jblTvPHivIuILeEkTpGFRd8GYmm6Anf2bMJTU8/gNmfssjz5IsYuPI3TjwAmJwbOA5Zh1KliTgAAk3EZwyfuxZoUxmyAF8/OwZJ2G4H1681yiT964XLAQVxeH0bOAhqEjHCHT4uBZmtLkxk0aAjN7hExQ0hTGy79Owk/TV6C5+ZdRoLuWEgwGdHoOSUK1xSAPOkUPnL0Qsf5EfCJ+BsXM0p1RlAVnQhGU6cQhOjyq0mx8lcTp6bW17lo4GTrsHCk/7cN8NJLZrmNT32M5S98ieUvDSNnAQ28mg7Aojo9zNaWAOY85KZm94iZIaSEqddStBvpgzYjl6HBqEOIVL+rqqIpQ1bYLry7JlU9xrkMeUnX4bZkGzoN9URdh9/QctweuEXnQ44yZO7finquf+KsiQEc5gJMTWhOgdegQ2pCS1AYJmf3iJghpISp52K8vTwBd4vSMH+iJ15wv4G08qGNJdjz2xpMOK8ZDMFAUd58ZpB79w42rtyI5o5b4J/OoODYHjQafADherU4N6sWAzj3GHy/nYiJE7luEqYHXOBGT8cSKUAAV0rIMmQKze4RnCEUjxzOOzCbHFnSaXzq6I0vDjyAElnZ3xg/JgR72Q4tpgABcxaj0+ZM1TVN+mWJGOfii7Fn5VDci4ZD31X4ge2t4v4VJ2Ky6wqMP1Vi9juw6Br44QVs91qMxYvVbr4r3m3QCB97XeOmhI4lUoAArqSQwrN7hGcI8WtDBgn7tqGZ4wb8lvAIstgIvDv3CrKVNXIZUsN3osWA9fju8F3cLpCj9N/7iNi+HfYuQdjFfopiCrHP0w+NJ0Vgf7q6Gi6+jz2+a9Fw+EGEPayqXug8RE59DfZOG3BH739JJWWn29UKEMCVfhTEzO4xPUOIDzAARR42z1uKeqMPY93v69EzKE/bUcUU49yBP9Bz9FI06LEQdft449UZB7A6TrvyJArSsdr9dzTv7Qn7r5bD3tEdzcaHIiBRBbQyzh5usOvOdYvQZcd9g3N3RdfAHD2LzvyIt1r2wspEopcji6SHBLCkcgoEVqEZQmXIScvEnQLuIA2BeDiX5QV5uPF3OmLTi/Um+XOMRByaDTBzF+scm+H12Wdq1daiIqSU1IQAllRO2w3MXIAV8YvRpVE3+CZR7WvJp4IAtqS6NhS2eQArkOTzMRo6LEdKeU+6DYlRg7JCANegwqjJSTEP4Hxsc26MjvMu6faU1+QMWmnaCGArLbiqTrZZAMtjsaBTQwzcqtwdqaqTWqviI4BFFDeTE4uJU9fhQ/eLSNB7pcs/GwmHyRvx3UntuMWStHi4uW/Cay5eaDLQD2/N3A/Pszk6nTmmZzAxuB6yFw6/J2pTJ0vGtEmhCC4CTN9bjODlG9F50jp0nrQeH0zeiO5zgjAtKBkpvJFZZbgbeRAfTw3FBu2oEW2cnCOzAObcR4eWVYAAFqGvcsJCz9/wvy/Ww13npa4Yu9x88ESP3/D5AdXmYPLUi+jv4o33fC4g8nY+7mVkIDx4P94d4Iv+B++rB2YI7U+kQPTalag/Vzv4QXYjEp1+uoSMEoF7mQKsmemO9t5XEHEpGUfO30JI+HEMdvWE/bwrSOb+A1Lch+fUZXjzG1+8tS7NZC81ASziQakGEwJYhOiqGUcbMOCHpfhga7b2O2n+NQweGYieYz1UADOF2LnAB/YLryNTp/OmDGkRu9HSOQi789lZQUL7E+kDzODGlg1w2J0rvLeREmAPdNqSpfP+qUg7j179lmHcOe34SnnCUXQcHIIdp/5Am6EHcUjbiOCpEjDmHC406gX06GGW29+6F7Z0n44tPWaSs4AGK9u7gp3QYO5frZrMoAJuC3zCQvDcpJNQ7VxShqzDu/HakvNYMEUNcEk8XJ188PUpXlsVKI7H187ecGWvCc1ggh7ATB78Zm7AgiRG+F4jALOjswLmeKD9Gs0+vXJErfDH8163UCC7i9lfe2NQpPEtRv2+TcS21j8DP/1kljvXfxKOzFmLIz8FkLOABoe+WwF2Kxdz/2olwKvT4zFqyDosus0oxyRv+GUVJpzNxBI1wPKcC+jRezV+jtepflXaKtIxd4wHeoaqVmc2NYMJegAzuZfhNP5P5VxfNjCT9xoDGHKEuHuhhWeCKj1FCRjt4o/pV9nR1gxiAwPQaEa0bhOb81RQE5ojhg0c1kqA1+SU4g8vP7wfmAXZ/YtwHB2Go8U55QAzBTFw+sIP317WzBrilLQsGZOHesI5slTpaXIGkx7A+ceD8dbSxPJOMJP3GgW4GBt/8kBb/zsAypAduRtNPl+B7m5BGLYwCENnr0LDnmswL8HAP5//R9wcgBWp+7FoCmc20qQZWH9J23TnqEKH1aRALQW4DIXRB/DixChEhmzDm/53UKrgAKzIge+0xXh97d1y2DTlUxIbgVf7boZfukJ4BpMOwHIc8lmDEVEs+CJmPxkDuOAmXAd7YcjRYoDJx5rZnnh9cTS2/HkVW5XuMmZM9cSLvknqLVk0KVf9mgPww11D0KT9IPyqmZHk6YvQeAP/1HSjoLMqVKDWAoySREwY5o8Oo9bge3aHMC7AAHLPh+NVx1UYfTgT+crKrAz5yTEY/bUn2vslIpdtsAruT8R5B36Uiu/H78JG9YJ1gvfqA8zIkZt2G37zV3SlrNcAACAASURBVKDxhGM4UwIoUk+h6xcb4JmqW9vmHN2L5k57sTOf/ySJB1iGcz++iZe/PQ5VW4MfFvlUvwK1F2DIEenrhydcI1UrXugBzL6/Jv91BI6uS9DQeQXafeWDRgNWwjHgJpLKW5FCM5i0AMsTj6PLzGjOkESBe5UALyqfZfSYw0LUG7AcXRaeROR9FlgGlzasQYPp0TpraikfqeJbGOOyGJ+F5PGeMNEAM1kI6NMAbw2dhXGDHeE4ZDJ8Dt8x+YmKFxl5WFyBWgVwhdRk5HiQkYVrt/OQUw6u+SEx/+bgWkaJdiqh+UFIcodogGWn8cObzdHR1RchR48geKkr3mz8CiaG50iSDgpEGgUIYGl0tJpQRAPMy1Epor5ri8YuO0EDK3niVJsHAVxt0ldPxKIBfhiHiJ0RuFm+JK4cV+e/gwb9Ninf/6sn9RSrvgIEsL4iNn4uGuD8fXB9thWcN6cqR6wx2Ucx/a2mcFieqB3BZuNaWUP2CGCLllIZMo7+gY8mbcCIA/pL3JQgbG0gPph6CCFsm1SRBX+3QPygWbGyOAvb1+zCe1/5oHE/b7w4dismhKSq19NSJ1qWg/2bQ/Dp175o2t8bL4zZgjE7bnE62fiZEw0wFLizdxI6tWyBdu+9j1dbtUTHb7bw1rnmx0A+VakAAWxRtctwZ+8mPNHLHQ0mn8RN7gSEh9fxpfMi1O21FWtzy4BH/2COqwcGRrLDN+U4uWolmk2JwN6EPGTl/YvYsyfQa7A3nA7lqzrCFPfx+8++aD7hIFZfzMLdB3m4Gn0OY8Z7wf7nS7zZVppsigdYfUdRBuJjYhB/r1ATBP3WIAUIYIsWhgrg+t/uRN/B6+F+R/u99kHkHrSbsQVv9zEAMJMH32ke+Hh3Lqe5yiD2wAEM3cUuCl+G7KN70dIlCLs5G6mxWWGyr8LZ2QdDj5VvxqSTQxZgx645wP37ZrlHWfdRdD+fXA3TgADWebylPlEDPPMM1rv7ovPWLBWQTCE2z1uFb/ZFoashgMHg2o6NaDRgLQavPoMt0elIKeIuhvcIoR7eaLk4HnxMZQhd7IMWHvEGM7Nn0G7Azs5st9SuK9zsupOrYRoQwAYfc6k8NQBfQPKpULSedALXFeymZZcxYNRBhCWfMgIwW5WW4NqxKHwzJwAvOC7Cf3r54J35UQhn5zcyBVg90x0d1qXpTDVUpVo1wOOpmYZ3UFjwyyOMfvcacPWqWS7/1EVkXE0kV8M0IIClYtVgOFqAM4puYczQdVh4W4H0AzvQwS8ZhWkmAFYw2uazohi3Yq5g+lRvNJx5DsmKEgTOXYwXl982MMxRjiPL/NBwnnYRAW7SzH4H5t5MxzVOAQLYokWiBTiTkSHc2w/vb06C/5w1mBYjh8IIwEzOJfT5IgBuydp3ZjaZpecP4DmXAwiTMUjaswlPj4rEWf3RYbJUzHRdjO5B7Ght/l+VAqy4hXWuDpiyJ1NvBJoCdzaPQY8ZochK3ojR3ecgvPx7Mz/NkN/C+rGTsEUz5pvJxp4pH6Fz58567iOM25ZmIADb9SKALVq2XICBovMH8dLI1Xj9mwgo1wMwAjA7y2jjL95oOvkQAq/nIk8mR05qIhb/4KtdJeRhIr519cTrnjGIVS8Wz84vDvRchYauYThsZLhUlQIMOWLmv4NGvddyNnhjP5nFw/PDZugbkA7ZjUXoVN8JW/kv86qSkd1ByOSOqP9EF3hqFjJj0uDv8BTenb4XkUeO4Ei5O4aLKab+E1i0sKslcALYorLrAgxZEiYNXYRX195VTgowVgOzSWL+/Qdrfbegw+DFqPvZIjw1cCUcvC8gmrNdqSz9Jn76aSWaOPqg7cgVaOXohVd/OoKQNONT/qoWYECRsAQfNu6JlZrak/1IFrsQ77VywY4HgNwUwIUn8GvXNug4dBg+atZVD+D6cPBP06vZLVqYNTJwArhGFos5iSpDSX4ebiRl4c6/xsHVhFjVAINJwcqezeCw/I76nV6OS3M74rlR+5Vjqk0CXHQDUSdSUFIUCtdnCGBNGXJ/CWCuGrXguMoBBoPMzU5o1W0plLuzyM5i9usvY8pRVVPXJMCa8igxBPATqPNEPdSrx3GNusFb08zW3GvjvwSwjRewfvaqHmB2dYQ9GG7/EZYkKFAa9R3adZhT3vlWcYDro5tPPHLz8pCncfkFKNXt99PPvs2dE8A2V6SmM1QtAKMQYWPboKtHDA5NfBnvuV0r/35dGYDpHRgggE0/7zZ3tXoABkpOTMNrHwxE/3bdsZSzzzABXLlHjACunH5Wd3d1AQz5BfzcoS7q631SUgJc1w52dhxXpx1mnuZ84DbyDqxzj/L+x9Bo6F6rK5PKJJgArox6VnhvtQFshVpZQ5IJYGsoJQnTaPUA//UXIBf+XCahZDU6KAK4RheP9ImzaoCvXVPNovLzk14YKw2RALbSgqtosq0a4NmzVQB37VrR7NvcfQSwzRWp6QxZLcAKBfDMM8CoUSqI4w3Pdzade9u7SgDbXpmazJHVAvznn0CdOkB2NvD22wBbG9MffQeubc+A1QI8ciTQr5+quPz9gZYtqTMLNJCjtvFr1u6ENUacggLgqaeAPXtUScrJAZ58Eti/v8YksboSQk3o6lK+muK1yhp4yxagYUOghDPXd+hQoH//alKx5kRLANecsqiSlFglwD16AOPG6eoTGal6J87I0PWvZWcEcC0rcKsDOC0N+M9/AHYAB/ePYYAXXgCWLOH61rpjAriWFbnVAcwC+tJLQBl3WV11oS1YALRvX8tKUDe7BLCuHjZ/ZnUA29sDn34KuLmp3JAhwPz5quMZM1TfhGtxZxYBbPPI6mbQ6gBma9j33wc+/hj48EMVsG+9pTpn/V58Uds7rZvVWnFGANeKYtZm0uoA1iYdKC1VAXz6NNe3Vh8TwLWs+K0Z4LLSUhy0a4fiiKO1rNSMZ5cANq6NTV6xZoDlpTLl3kypxy7ZZNlUJFMEcEVUs+J7KgIw8yAcP33phpOlnIwr7iJyyXg4fdYdnw//GTuuF3AuWuawHODTsZaJwApDJYCtsNAqk2RzAWayouDm0AJ1mroitHwglAwX3TrDvssMbIs6gZCFfdD6pdEIfWDZJSEJYH7JE8B8TWzaxxyAZeeWwKFtO/QZ1RdtW3IALj2GKW1extTj6ipZcRu+3Zqgb8A9i2pHAPPlJYD5mti0jzkAy+OjEJlQANmVeXi7lRZgJtUP3Rr0xfocjVSlODr5Jbw02bKdSwSwRm/tLwGs1aJWHJkDsEYQuR7A8tgF6NTkS+wp35BMhnM/dkCLESGaWyzySwDzZSWA+ZrYtI8UACviPfBBo0HYUaiRSoZT37eH/dgwjYdFfglgvqwEMF8Tm/aRAmA83I5BTbpiyS2FWquH2P1lM3Rys2zvMAHMfzQJYL4mNu0jCcBMGtZ90RLvz4tW7TCYvB5O9m/ip/OcxdgtoCIBzBeVAOZrYtM+kgAMoDR2DQa1bY7Wb72Ldq1ao/v8KORY9isSCGD+o0kA8zUx7VOcgJlT16HzJH23Ed+dLAYgw8HVGw1cX4ePV9zE/bTL+HpaKDak6T/tDK4F7UXPtbdU8RdnI2hzCLqPXobm/bzw3DdbMflAmi4kYmz0clMRgPWC0J7KcpAcG4tbWeW9WdprFjgigPmiEsB8TUz7FFxBv94r4HowEUcuJXPcbVzJZqEswaaf3NHW4xIidK4n49jf/0KuyMKiCR7ovDVbveG1OrpHqZjl6o1BkYXAo0wsm+mDZ6ZFYFNMNu7ez0X00T/x8QAvOARlq3b2E2NjICeSAmwgfEt6EcB8dQlgviamfViA+6zB3AT9GlRzGwuwB97ckF6+habmiuqXwe2gQDQcdxwxmj4gAEUX/8BLQ/bjYFEZMg/vRrMhoQj9l3tnGVLCgvH+ggu4qRBjw71Xe7zox0L88nooEBJilvtn+SbcDD6BmyEnq81d331MORY65a9r2gzV8iMC2NwHoNIAA0xODJwGrMaPcRqCSxHq6Yv2K1NQikcIXuSF5u43Uf6VhpdGMTa8m5QeO4fsQ8HjDYEGDcxyq+p8iMVP98XiBl9Um/N4ui9+e6In0i+pXzMMZ7FW+RLA5hY3C3Cvhaj7uTvq9eY4xx1Yl8su+8LWwL/h8R6ca0o7T/T7oxCqersEIe6+aKcEFkB+LIY4B2BBIgMwBVgzyx3t19yF0T5dMTZG8mXNTWgjWarV3gSwucWvrIFXY861IuQVlHCcTA2cqgndYW0KHuhcL0HhI21kRZfC8PJXYTgqK8O9sB1oNSMaycoKWYZd8z3xrPffKJ87oL1NfSTGhneT0sMsgB9ew7afhqN3Nwf0H7MQIfHG2wSGYyNfSytAAJursARNaGWUijT8PMYPY89mw3/mUjgdKlDXzqp35KdHRSKaAzx7T+H5MLz61UHsLxBjYzhjogFm7mLLoGfR4uNZ2Bp1GuF+Q9H+RRdsTTX27m84PvK1rAIEsLn6SgUwGNzcsQEv/LgbHw/dhxDOdFom7yZGDV2Czqvjkcx+mWLhTb2BSWM90cbnFnIBiLExlDWxADN3/eHwNHe0VS62D2qOzr/F6faeG4qE/KpMAQLYXKmV78BusOvOdy2XJKBE/Q5s6Pp/nPfjIOfFlsm8gF59FqLN8tu85nJ+wgWMHOeNeo6+aDvcFw17e+Fdz0uIUQPNJluMjX72xAIsv7EI77Hjncv/sZTi8Pjn0GRYEKrmq69+yunckAIEsCFVaowfg7yMLFxJyETyv5oea/3EibHR3iMWYBRFYMKLz6L/2njlPxfFvf0Y07YOnnTaYqJ3XBsPHVWNAgRw1ehcY2IRDTAY3Aufgw9bNcKz7Tvg1Td7Y+ygN9B02F6qgWtMadLuhDWoKKomKeYALHv4EEVFOUhNTkOevAhhY5/Hu/NjjAxQqZr0Uyy6ClANrKuHzZ+JBlh2EtPbtcaIvVnK3nFZ0joMaN0JC67IbV4ja8ogAWxNpSVBWkUDDAXu7BqD11s8h45d38MrrTtgyMpL9P4rQRlIGQQBXAE1C89E4GPebKR16Dz1EEIeAhCcsQQU3r6GWXMD0NZ5CRo7+eHt2QfhH6sZqVWM4OWaGU3r8cHkjeg+JwjTgpKRovdtGCjD3ciD+HiqoRlO/MyJB1h1rzwvBdev3kTaQ2OdaPw4yKfqFCCAK6B1/qEdqPfVPgSc585GSsaRy/eQxj7n7KcmUzOWZCn43tULXVffwKWMQmRnZ+KPwK14duAubMoqUw2nnOmO9t5XVDOazt9CSPhxDHb1hP28K+oRW+qEK+7Dc+oyvPmNL95al2Z8+KXa3FyAKyAP3VKFChDAFRCbBfipb47horFKSWCwB5NxFp/22Yil9zijmhSZWOsdBO9YhRpgD3TakqXTYaRIO49e/ZZh3Dntx2R5wlF0HByCHaf+QJuhB3GI853YUNZWj4/BseZDAXaXPzNcxOsDsHfQr9g7ZAE5C2iwrfdsBA9fZKjITPoRwCblMXyxsgBDkYklUz3RdOwezNx9FeEJeXjIYVk5oWEmH2AwhQiY46Gc6KBKmRxRK/zxvNctFMjuYvbXqvnE3KD0c+A/8QYOPDMRmDDBLBf14Vc4OMYLBycsJWcBDTZ+PBU+LZ31i0vwnAAWlIhvwAL85GeL8D/ubKTe7mj00yVksfQoR2uZmrHEVrKZ2LV5P/pM8EPDHm74r/PvGLz5b6SytTo728gQwJAjxN0LLTwTVIkqSsBoF39Mv8r2DDOIDQxAo/JJEfx0sz7UhDasS3X7XlizH/6vjDA7GQSw2ZIByhp4dCT+yufORipBfrG6Ta1sQpuasQQoFNp6Uv7wAaLCD+MjJ0/0CMmFwijAxdj4kwfa+t8B23mVHbkbTT5fge5uQRi2MAhDZ69Cw55rMM/oYgMVA9jg3khq3Uxdq4C0tfYWArgKi75yTegyZB7chgYTosC+7mr/5Djs7Qt771soMQZwwU24DvbCkKPFAJOPNbM98friaGz58yq2Kt1lzJjqiRd9k4x+7jG3Bja8N5Iq1aauafNFR2IUIIDFqCSRTeUABpjMKxgw0AtdVsTgzL0SlMqKkXD+L/R18cXQYwVg9AFm5MhNuw2/+SvQeMIxnCkBFKmn0PWLDfDUm96Xc3Qvmjvtxc58w5k1B2CjeyOxS/cZ2zfJcLTkK6AAASwgkJSXle/ABmYj2Tn44JszcvU7MH+2EjtDSTVjqQw5cRcxceZqPPvFIjzewwMtXAMxLvQf1aqTSoAXlc94esxhIeoNWI4uC08i8j7b9GZwacMaNJgejds6tTj7DfoWxrgsxmcheQazbA7AxvZGYgM2dc1gxORpUgEC2KQ8dFGjgDkAa+7R3xtJ48/+mrrGtaNj0woQwKb1oatqBQjgmvkoEMA1s1xqXKoI4BpXJMoEEcA1s1xqXKoI4BpXJARwtRSJ4IQF01ussOtasduwXI/8E04TVqBlvyVoPnQtPl96Dqfz2OVpNX8y3DwRhZHTV6O10xI0dVmDz5ddxPl/WZsypEUeQHffWGRoPytrbjT4SwAblKXaPakGruoiEJqwILTFCruC9NUItB+wATOj0pGSW4i05FtYOGspWsy9grtKIBWI3bsFLQdtwveH7uBm1kMkx8Vi1lQvNJ0RjTgFg6RdG/HUtLO4Y0GAq1ra2hgfAVzVpS4wYUG1wLupLVbKcGfPJjw19YzOpyB58kWMXXgapx+pdnBwHrAMo07pzlBgMi5j+MS9WJMirxjAn7AznthF5M1wZWUoY5ja5cq4LSHLPmAEsGX15YdeaYABedIpfOTohY7zI+AT8TcuZpSq14ZWRVd0IhhNnUIQossvJy3m18Ds1iqwszPbLX+si3JfIje77rXqN3TUYo7eljskgC2nreGQWYArvcVKGfKSrsNtyTZ0GuqJug6/oeW4PXCLzoccZcjcvxX1XP/EWd4kfk2SzAeY3dxs2ltRwPHjZrnM3WG4ffxKrXLr3p+IwzNWacS26C8BbFF5DQSurIFNTVgQs8UKA0X5SCoGuXfvYOPKjWjuuAX+6QwKju1Bo8EHEK6d/quXEPMBrkgnlqEJC0zOBWycMxx9un0Ch/5jsGh/Im9ta73EWt3ptt5z8OfsNVWSbgK4SmTmRFLZJjRTgIA5i9Fpc6bOpH3IEjHOxRdjz8qhuBcNh76r8EP5Lobq+IsTMdl1BcafKqrYO/CnnHwIHBqcsMCkYEP/Vmjj5Il9p6NxbOMUvNesHaYeKV8FXiBU67hMAEtYTmfOqF7bio2+D0oYmZigKgswypAavhMtBqzHd4fv4naBHKX/3kfE9u2wdwnCrhy2o6kQ+zz90HhSBPanq6vh4vvY47sWDYcfRNhDy9bARics5AVj3FsDsap8IHYR9o1sifYzT4tRzmpsCGAJi6pGAtzL1IQF1TajJrdYYYpx7sAf6Dl6KRr0WIi6fbzx6owDWB1XrO3MKkjHavff0by3J+y/Wg57R3c0Gx+KgEQWaBXAdfUnVvRYz5ulpCkKc5rQoicslF7ALx0bocfKFE00NvFLAEtYjDUOYAnzJiYoeUEebvydjtj0YsGF60yFZw7AmnBMTlhQ3MW+8R3Q/L25OG1bLWgQwJonQILf2g6wBBIqg5AU4IKrWDvkFbR6/3uEpZf3xkmV1GoPhwCWsAgIYGnElApgJjMCP3ZphTYDV+CCkcUDpElx9YVCAEuoPQEsjZiSACyPg99nLdB2xE7ctuGdVghgaZ45ZSgEsDRiSgFwadR3aPO4HezsuO5xPDchQppE1pBQCGAJC6ImACzFliqsJLKMJCxbtgPvjfBF035eaD06ECM3xyNJ/aWIybuBKVMDMeVYvrY3ml39IvEsBv90UjlOOudEePn2Lh9MXo+Ppm/DUP9oHMkw/S5aEYAlLEarCooAlrC4agLA7FpYldpShf3wkxmL4UM98arbKeyLz0VGTj6uRUdj5GhPtFueBPZ1ksk+B4eebnjceTcCOfMEZVcP4RWX/QiTscMst6Ce6wFsUm7vkoiwk1cwf/5KNHLZjU3pxqcmEcDiH0oCWLxWgpY1BeDKbKnCzv+N9F2Oxt+fwy29irL05gn0nX0SZ2RqgHuvxMdTvPHM3Cu4o7bVB/ipCSdwgxuOIgcrZy1Ba++/jerp/sO/cHt1F7Bjh1kuxWMVYrdHInbHkWp1Z3x2K2dEGc2ghBcIYAnFtAmAZXcwdbgnBkaYHk6mrIH7BGJ53GUMHOSD/mG5YDkVBBhlyDq4DfVd/zSq/PYvDyCnbkugRQuz3O9PfgTvZk7wbjGw2pxXcyflTKjkI5eM5k/KCwSwhGrWFIArtaVK8TUM7LMC02I01SaDuzFXsXb/BawOPY9VobE4k1OmakL3CYR/NoOUw7vx7MDtCEhjRAAMlJwMQdOBoUaVt+YmtLxUpgQ49XSs0fxJeYEAllDNmgLwU5XZUkUWj68H+mDUac23FwbXwsLw1cIgDHPbhBc/X4U5cQoOwOx46Hxsm++L5nMuIO6K7jswrwkNIDd8B+p/dcio8gSwUWl4FwhgniQV96gxAFdiW1F207KNPy9BG99EsPuA6/yV3MDQ/gYAVnZqxeJLFy84eO5CG04nFh/gEuzzWIpmC4zXUASwjuomTwhgk/KYd9EmAAZQeP0YOvVbAZfgVGgmGEH2L/4KDUa7z1fj53hGtwZWylSG9GNBsP+M7ZnW9kJrAS5D6cMcHAvag7b9AjDvutEVAKx6d0JqQvOZod0J+ZoY9an8lips0GXIuHIaIyb7opGjL9qOXI5Wfd3RYuxuzI3KBjsfQNOJ5Z/NWZOJKcBe92WoywH4Cc4spDq9vdBmchDcLz5UdngZywTVwMaU4ftTDczXpMI+NaEGrnDiDd7IoDAnFzcSM5HwQKYzYMOguUSeBLB4IQlg8VoJWtoewIJZtogBASxeVgJYvFaClgSwoESiDAhgUTIpjQhg8VoJWhLAghKJMiCARcmkNCKAxWslaEkAC0okyoAAFiWT0ogAFq+VoCUBLCiRKAMCWJRMSiMCWLxWgpYEsKBEogwIYFEyKY0IYPFaCVoSwIISiTIggEXJpDQigMVrJWhJAAtKJMqAABYlk9KIABavlaAlASwokSiDigBsaGuV8siYu9g9pRfGb0uz+GAUGkpZrnr5AQ2lLJeidhyYC7DBrVXKpVIgKaAfWvynLj7yTjI5hLP8lkocEMB88QhgviY27WMOwEa3VlErJIvzQ683nDH4w6cI4Eo+NbS5WSUFrC23mwOwya1VSmOwuNubGB1yB4FOTxPAlXyACOBKClhbbjcHYI0m/K1VChH9axd0nBiOB0wRthLAGqkq/EsAV1i62nWjFADnR83Cu29MwP7UPOTlZWCd49Po8ts15BZpVhqxjKb0DszXld6B+ZrYtE/lAZbh/Nx30aBePdRTuyfrPIbHn6iH58YesKh2BDBfXgKYr4lN+4gFuIzRri3Nb0IDjEJT21ITWooHhprQUqhYC8IQC/Cm7z7BpYMBSkX0Af773CEsH95GrRYBLMVjQwBLoaLFwlAg5eJZTP4pAK+4eKHxgGXoMCMEbqdyUKqOU3+rlK5TA9HPPRLr4gpVAyQUWfB3C8QP5zU1H1CSFg839014zcULTQb64a2Z++F5NgclJvIhFuDc9GQs+/L5cog1QbLweg9sgX/izmm8quyXmtB8qakJzddEYp8ypB4NxouOK/Hljpu4kF6AzMxMhAeF4A1Hf3x7kcVNf6uUZESei8PqZevQZMB2/M5ur/LoH8xx9cDASNWCdfLUi+jv4o33fC4g8nY+7mVkIDx4P94d4Iv+B+9Di7ludsQCzN6lD3F1wsumhwDWLUv2jADmayKtT3ESJg1bgs+CH+iNVJLj/Jbt+HzrXZSqAdauMqlOgiwZk770QL9DJboAM4XYucAH9guvI1P7qqr8R5AWsRstnYOw28ievQt+eYSpb50EoqJEudx9O7BsQAsc+uXLaqt5NQVCAGuU0P4SwFotLHJUGhOONo67sOVfU8GramB9gJmcq3Ae4A3XU490AS6Jh6uTD75m/fX/iuPxtbP6Hv1rAPYM2g3Y2ZnlrrSyw8JudjjiP8NAiFXnRQDztSaA+ZpI6lMYuUu5U8IJDWuKfJz48yLWsNup7DuP1UfuIpNRAfxf5/UYtvQPTPT9AxOW7EG3rxaj6bRTuMhuO8ppQjM5F9Cjt2oNaV5iFemYO8YDPUPZBWr5f2wTutsnDKBQiHJ/n/0D3gOb4+aJYIPvxPwYLOdDAPO1JYD5mkjqU3JqH1o4h+KAeu9fKDKx3i8YwxYG4ctpfvjf15GIfqQC+H9DtmHWtr+weMcpeO25gC1nM5CpAZ8DMApi4PSFH769bOBNV5aMyUM94Ryp6R7TzY4578D677z678S6IVv+jADma0wA8zWR1IfJuYL+/ZZj4nk+UEVRQWjCAVi/Ca2TEC7Aihz4TluM19fe5fU4l8RG4NW+m+FnZI9gsQDrw6tJS3VCTABrSkH7SwBrtbDQkQxnNgSg8Vd7sCL2Yflno5LsFKxe5I//jT6KCwrD78A6CeICzPYQnw/Hq46rMPpwJvKVHVllyE+OweivPdHeLxG5OjdrT8QAzA7S8HV5zuinIhbi5cNeQl7GHW3AVXBEAPNFJoD5mkjvwxTg+M4QfODiiUYuK9BuuA+e7u2Nt+cdw947bNvafIABBZL/OgJH1yVo6LwC7b7yQaMBK+EYcBNJmua6gZyIAZi9jTsSy0Aw1eJFAPNlJ4D5mljORyFDZnoWribdx71izr5HlYmRkeNBRhau3c5DjglwNVGIBVhjX5N+CWB+aRDAfE1s2ocAFl+8tCaWeK0ELWlNLEGJRBkQwKJkUhoRwOK1ErQkgAUlEmVAAIuSSWlEAIvXStCSABaUSJQBASxKJqURASxeK0FLAlhQIlEGBLAomZRGBLB4rQQtCWBB0HqtCAAAEd5JREFUiUQZEMCiZFIaEcDitRK0JIAFJRJlQACLkklpRACL10rQkgAWlEiUAQEsSialEQEsXitBSwJYUCJRBgSwKJmURgSweK0ELQlgQYlEGZgFcP4VBM7+Er0+7Q7HUfOxN87wFEVREUtgRCOx+CLSSCy+JjbtIxpg5h52DLHHc309cODMGex374vWL47BAWOzJKpANQKYLzIBzNfEpn1EAyy7gFVjpyPwlkKlR8kBjHrmVcw6I2LAtYUUJID5whLAfE1s2kc0wOUqFCLt6lFsnvkpnn9rFo4/LL9Q5QcEMF9yApiviU37mA1w6RH89MlbaNusOTqOWo+YanwNJoD5jyYBzNfEpn3MBlitBpPzF37o1BCd3K5Vmz4EMF96ApiviU37iAY4LwZBq4NxrXyVeBlOz2yPZsODqk0fApgvPQHM18SmfUQD/PAgvnmuFZw3pSjXs2ZyojCzYxM4LE+qNn0IYL70BDBfEwv7CG2zUobs42H4eEYYdmdxV+1gELNnD/ptTVWmT38rlo+mb8NQ/2gcyVD3GhvJhWiAwSDtwPfo8mwrtHv/fbz6TEt0HB2Im/y1+YzEJLH3aaCsM4M8u0wUdfkX+Fvi8A0ERwM5DIhSUS/bGMghbpuVtJBAPNF9IVrNi0FKOY8KnPT3h73XrfI1tOq5HsCm88k4cikRYSevYP78lWjkshubjKxIyWovHmB1SRVlID4mBjfvqfdoqmgBVua+o6o9RMrsypR7iSh/HwcQU5lAhe8lgIU1Em1hEwCL3GaFBbie60Z0HbgUAw/lqbdk4QPMW4ZWkYOVs5agtbfx6slsgEWXkAUNX1VvAsS2F7nubQvGCYAAllBfWwBY7DYrLMD1Z0QjOmwXnnHeifX32HVjRQCMMmQd3Ib6rn8aVX7bsDD8W6cJ0KiRWe73Ol3g2eALeDZyrHJXalekC64G4gZGsynJBQJYEhlVgdgCwGK3WVEBfA5pijwEzluKFj9eQpJCDMBAyckQNB0YalR5j9m5mPd6CBAcbJZLWbYRccEnqsWV2BdC03zWqYHfMZpNSS4QwJLIqArEFgAWu81KOcAMwGRdg4uLN/rsz8ZxvXdgXhOaXfA9fIdyLyZj0pvVhC66ib2/jkSfbp+ix6DvsObsA9VexcYCt5R/uP47MAM8BsDCWxQTwBIWqC0ALHabFS7A7KLvaUf2wn5AIEbNXa7TicUHuAT7PJai2YJYo8qLB7gIx6e1Q4uP52DXX2cR7jsIbVv1x4ZUnf1MjcYj+YWdANOcQY5dGgrsc4GTksfAC5AA5klScQ9bABgQt82KLsD/33XMPMTuhb6o47AQrTi90FqAy1D6MAfHgvagbb8AzLuu2RGNr7dogBXx8PigIZy2qAc/y6Lxw+ut8PX+8pEd/MAt7EPfgfkC03dgviaW9RGxzQoPYJbhnBsYMWSRDsBPdHeDndrV6e2FNpOD4H7xod5G4rrZEQ0wSnB27ruw/+QH7D4VjQj/oWjXejC2plVTDQyAANYtS/aMAOZrUjU+lthmRUTKxQPM4MHpJejbujHsX+uAl5o2xTuTg3HbwI6mIqKVxIQA5stIAPM1sWkf0QDn7cPX9s/jy623wc4AZnJP4+f3m+FjrziTNbwlxSOA+eoSwHxNbNpHLMDymF/xdsNB2FGokUOOq/PfQUPn7SjSeFXxLwHMF5wA5mti0z5iAUbeXgxv9Ty+2p2mqnGLrmFJt6Z4d34MqqsVTQDzH00CmK+JTfuIBhgKpARPRedWTfB8x/fRsXULtB2wFNH51ScPAczXngDma2JhH2uZjaSWoSQLt65ewfXU/Gp791WmZDRQ9p8y5Yissrr/3xO+wMLFRGOhpRXYNr4DW+FsJGmLsWKhzdOdxFA+rNK/YsGJvYsGcohVSoSdTQBcA2Yjuf1ciplvRgIREWa5zM1BSIw4Xy2usFGu4bHQz4h4cCphQgBXQjz9W20B4JowG2n34L2QP1YXqFPHLOf3nw+x8PHPsLBO1bsUu2uGZyM10n9KpD0ngCXU0xYArgmzkcR3YklYeJUNqo9uE7p8RtLQygZs+n4C2LQ+Zl21BYCtbjaSuoSYB+H46Us3nOQup1OV267cB1APyma03K5U1ZxuAVj6gzQBbBaipo1tAWDrmo2kKg8mKwpuDi1Qp6krQjXzGKpj25USQPGtHMfsNiBr4m3TD4tEVwlgiYRkg7EFgK1qNhIA2bklcGjbDn1G9UXblhyAq2nbFfoOzAeKvgPzNbGsj9XMRgLk8VGITCiA7Mo8vN2KA3C5QlW77QoBXC58+QEBXC5FFR/U+NlIWj3kxgCu4m1XCGBtmWiOCGCNErXktyK90EYBVmtWVduuEMD8h5QA5mti0z6SAFxN264QwPxHkwDma2LTPpIAXE3brhDA/EeTAOZrYtM+kgBcTduuyAPkOGu3F5lLk6ukjOgzkoQy28ZnJFYQK5uNZKoMq2rblRwAjVQDOconMrwEQPNd2lQaK3GNAK6EePq32gbANBtJv1xFnfc2MpTSRdTdFTYigCssHf9GmwC4BsxGWjnxOsJajgFGjzbLHe/kglBXD4SO9qxy96hOieHJDA35z4mUPgSwhGraAsA1YTbS6vExiGjhCowcaZaLfMcFIcMWImSke5W74v8+NDyd0F7CB8xAUASwAVEq6mULANNspAqW/i9GmtA0oZ/Wha7gI1Wh26x1NlKFMiv1TV+oOrHYJ1bZkTVF6gj44VENzNekwj62UANb42ykCheYBW6Up8gQaDcDqUeN7/0kZbQEsIRq2gLA1jYbScLikyQoGsjBl5EGcvA1sayPFc1GsqwQ5odOAPM1I4D5mlSNjxXNRqoaQYRjIYD5GhHAfE1s2qciQylriiAEML8kCGC+JjbtQwCLL17qxBKvlaClbXRiCWbT4gYEsHiJCWDxWglaEsCCEokyIIBFyaQ0IoDFayVoSQALSiTKgAAWJZPSiAAWr5WgJQEsKJEogxoDcFkZEBcHxMaKdvJLl+Fm1x2pW/aLvqc8/Pvs4tLm/RHA5ull0poANimP6Is1BuCQEMDOzizH2NlhqV1XZNvVM+s+ZTyffy5aI40hAaxRQoJfAlgCEQHUGIDZ7LC1YlZW1bhS7rYS4rQkgMXpJMqKABYlk6BRjQJYMLXVa0AAS6g/ASyNmASweB0JYPFaCVoSwIISiTKosQAfOgT897/AE09I4xwdRelhyogANqWOmdcIYDMFM2JeYwEuKFBtOM6CLIVLSjKigHhvAli8VoKWBLCgRKIMaizAolJftUYEsIR6E8DSiEkAi9eRABavlaAlASwokSgDqwE4LEz1LlynDiDGzZsnKv/mGBHA5qglYEsACwgk8rLVAMy+E0dGqt6LIyKEfx88EKmAeDMCWLxWgpYEsKBEogysBmBRubGsEQEsob4EsDRiEsDidSSAxWslaEkAC0okysBqAb53D3BwAD74QOXWrROV38oYEcCVUU/vXg3A338P/PILuYpq8PTTwCef6IlrDadFRYCPD+DurnKXLlk81QSwhBLfuKH6B8z+EyZXcQ26dwdmzJCwYGw4KALYhguXsmb7ChDAtl/GlEMbVoAAtuHCpazZvgIEsMXKuBRXNoSj91vL0KyxF+xf3YQR7om4q2AjLEbw1M2YuLMADCd+edx5DO9xFEdKASb7BqZ8tA6dO6vcBx9swCc9dmHMogQkced9P8zE1tm78F5bHzRp5otXPwnGgpD7KFSHqwynexj2ZJdxYmIQtyoYPX5JRilTgJ0TN6ri+WA9uny4CT2dD8J9n14YnLRo0tT5owPYllYGJiMWE9XXP/hgPT78ZAucx5/EvngZJ07OYU4cpnb/AzszpEuTUX040driIQFsoVItOPwH2thvg0dENtKzC5D410V81c4LDsvuA0wB1vT0wKfL8nQAlp0/gg6N9mJ3EcCknYPDU79j+t4kHDmSjCNHErF/0zH0fX4xOi1Ih5xNd2kGljr44JlPDmPj8SzcSb2PqA3h6NrcB31WZSttlOHUD4R/GhcWBc7/tBqNhlxHEZOHZZ964L2Zcap4Didgu88BvN/MG738s7Rh6KSFTU8yjhxLR0oJwNw5i0+fCsDMYJX/4QPX4DNuHZq12Ar/G9x/USqxmcwL6Fl/E5bdkTJNBvSxUNnWpGAJYIuUBoN4j/Vo2O8KcsrDL0P6nggMXpgsHmAeeAyuLwzAUw7nkM6U4d6mnWjW/hCiHpZHAqAMWcEhaN0yCLseqP8R8MLhA9xzDbc1UIaMXUGwfzYUBwqMhaGNUwlw/S1Yk8kBkinArqG+eHZUAgq0psojsQCbnyauPnqR2ugpAWyhgi09dxzvNlyKLl8fw6q9d3AzW9l2VsWmroHf/+U2rt/Iwg21uxZ0EO24NbAeeCV3k/FLV0+0nXobJZBhz1AvtPs+FbyGamkSJr7gg1EH5KqaXC8cQAhgAIU3MKzZSsw6ozAShlY4gwCzQewNQrP2f+KMXgJVAK/DL8e0eb9xIxNBE/x1WgW6AAunSVcfbfps+YgAtljpMsg6exlzhm7Gay3d8XhdT7TvE4m9t+TqGvg3/K/pMrz4op/W2XviiQacJvQTC/FEPXfUY93/FuF/jVfgk2/O4WxuGcDkY7mDBz5ZmgvOvwZVbhTZcH/fA5//XmgEPhEAl97Gt204/wS4aVGnqVG300hQqJvQ+jUw28I/Ho42rUJxoERXZCXAT7qjaWtO3l/0g32jRWjAadbzADaVJn19dKO02TMC2GJFy0BRTtYjpF+Mw0JHPzTo+pcZTejN8IkvRt6DPJxesQevPL8VSy89Uqe4GBu+WIx3F2Sq3oe5+ZDdxaz2nhi8UwYlLE9vhl8qp3kLBaLnrEKz4XHl78A8WIpuYmSL5ZgapanF1WnJK0Ge2uUXyJXv8MZq4KJ9IWjRJhxR3E63/191smJNaADG0mRQH64gtntMAFuibJl8+H/mCYcV+TqdVPKY43inebAZAHM7n0pxYuZqPP3aIRzJYxPN4Obi9Wj0saoW5GZDFsM23zfDL5kBim7gyyZrMPcStzNJjgOjl6Lt1DsoVXdi6QNccuIQ2jXdjW1G36O1MRoGWI4T0/zR1Pka9CfRVRRg02nS10ebPls+IoAtUroMktduRwv7Lfg1OAP3CuUouHsX60auxDP9L1cQYAB5iZj0sjs6zE5RfiZism5i1Eve+OjHv5GqruWKkm7iu05L8MqEv1UdaEweVvXyRLuxN5GqfhctuXUZzvZLMSKY7UJW9UKXAyyXIe18DMa/7YU3Zt1RdkAZ7snWCqcPsLzgX5wPPIi3m67GrCi9F+CK1MBi06SnjzaFtntEAFuqbJlCnF6xH93aeaNenYV4svFydBl+CsfYb59iPyPxOp/YHuZ9aF1/HdwuKT8kofB6DCZ/ugyNmixDu1d80bjxCvSYcR3xnPfOkuuXMfKNJXiqqR/atfNFo6eX4pNZCbjLVspKgBfBzs5N6R57fBEa2q9Fvx9vIlkVheo9+gnVdY2d8vcxTwzd+0j1GUlz/TE3PP6EJ+w77sCPIbn85r1ogEWkSYQ+liremhIuAVxTSqJS6WBQcO8BYq/nILOQ+67LDVSO7KRMXLyUiTu53OY014aOrU0BAtjaSozSSwpwFCCAOWLQISlgbQoQwNZWYpReUoCjAAHMEYMOSQFrU4AAtrYSo/SSAhwFCGCOGHRIClibAgSwtZUYpZcU4ChAAHPEoENSwNoUIICtrcQovaQARwECmCMGHZIC1qYAAWxtJUbpJQU4ChDAHDHokBSwNgUIYGsrMUovKcBRgADmiEGHpIC1KUAAW1uJUXpJAY4CBDBHDDokBaxNAQLY2kqM0ksKcBQggDli0CEpYG0KEMDWVmKUXlKAowABzBGDDkkBa1OAALa2EqP0kgIcBQhgjhh0SApYmwIEsLWVGKWXFOAoQABzxKBDUsDaFCCAra3EKL2kAEcBApgjBh2SAtamAAFsbSVG6SUFOAoQwBwx6JAUsDYFCGBrKzFKLynAUYAA5ohBh6SAtSlAAFtbiVF6SQGOAgQwRww6JAWsTQEC2NpKjNJLCnAUIIA5YtAhKWBtChDA1lZilF5SgKOANQD8fyV6+eAVVpHPAAAAAElFTkSuQmCC;" vertex="1" parent="1">
          <mxGeometry x="460" y="190" width="73.06" height="119.33" as="geometry" />
        </mxCell>
        <mxCell id="_MqUPr8f-RAkEZIioMhW-9" value="" style="shape=image;verticalLabelPosition=bottom;labelBackgroundColor=default;verticalAlign=top;aspect=fixed;imageAspect=0;image=data:image/png,iVBORw0KGgoAAAANSUhEUgAAAO0AAAGmCAYAAACQpQOUAAAgAElEQVR4AeydCXwM5//HN67+HCXqCEKr1aJatFRbtIijjiiCVh0pSqmjpVqtlqoQQog44z4rrkjijiLuSkRIEHEmRBM5yNHca3fy+f9ndjd7ze7Os7IV3W9er3ntzDPPd+aZ97PvzDOz88wjw3P2FzJpOfx7T3vOSm1vxeWQesoXbm+Uh4NMBpnh5FAO1Rp1xoRNUchSo1HeO4QZXeuhrGFekWWHF1ywLDEdYasHodkLDurtl8Nb0y5AoYeaQ+KOL1C/rCaPA15oNx83lXymAtzd54FBrevgBQfdMjqgfM33MWHnHRTqbcvahQLcCZqOPk0dUVZvPzI4lKmK1958GZXKVEHv9ang+F1khmH1oGYGZdItnwwya4vyrOJI2mdFnmW/vCxfoaVTZZSRyeDwQnU4N2yIhg0bokFdR7xQRiWRQ9la6Lb0GuQAlLEr0f+thqhduQxkMgeUd3QW8vMxmqn+S/8T/gmUa/ojzhc8RvC4t/FSBa2QFT5aiDhBSFVZlfc2wa1OWbXUDqhUuxn6LopAjvIB9n//PqrzMjuUR423umLQ6PH4ZmhXNHYsK+zDoUJjjDucrhKJ5dB18yqTcGBKG/V+KqCmsJ+J+G7cl3BtpfPPokxdjDpYIERyj/dh4nuN8Kpw3K8U86igw4Ok1YVM8yVIQIErv7dCeZkDKruuR1rxljlkx+7CxNZVBaHL1PoCuzLUKxVXMat1ecgcXkDn5YkGwhTi+LiXUVZWBtUH7UIOH5K7B0Nq8JKrzkQOVT7FRs2OlLfg17OmsA9hfdl6GHWIFyMDJ6a+i8oODihT4wN8t+0qMoVTnKoMhTc3YuDL5eAgc8ALH8zFdZ1/AsWHIGkmF2Ez38eLDjKUebElRm2K1tsPuAyc/qEFyjvI4FC5F9al6hRCs33FFfzeiudRET3WpBTzIGk1gOizhAmkYV2vSnCQlUfrWVcNmq2AInI6WpSXQVa2IcaHqhuijzegd2UHyMo1w88X5ACXiIMz+qPr576ILEjCMpcKkDlUQfdVKqHlYVPRtJwMDuXKoRzf9CzjhOF7cwHIEePjAscyDihfuTIq8GJUUomRfXwiGpd3gEPl1vjljKZxrnvoHBJX9xBkc/jfJ1idIiKTbnYT84poD7xX0QEOFZpg7AGtcLrZC0O+hnPZMqjZbxMSxXaTtg69KjlAVv4dzIzSNvxJWl2KNF9yBAoOY5RzWcjKOuPrEJGrw4IgDOPPkmVqYFiQqmlYeGQM6peVoYyjG9beSsC9kz/jnfIyOFQdiO05CsTtnYuf5wXjlrA5Dg+WugjXfuVb90e/huUgk5VD4+/PIjtqLtq96ACHii0wamQ7VZ53Z+JKYRyWda4CB4fyeOun81Dt1fiQFZEzVP9QyreH911rTrV5ODKmgdAqcBq8C+nGu1ClcJm4c/EKkkwUpODwKDjzPOqOgrr1LMSRtKaAUvpTEVBc+R2teOEquWK9psmqu8WMTejDn1XLt8CMSP4sokTM7PdQXuTGU/n3PRFr5E4uAofWQBlZWTSccBA7h6mawuVbDsKwdyvBwaEiWk0/iZ1f1kIZWRnUG3UIuXGL8PEL/NnvIyw0I6P87PdozJ/Bq/TDVrGTse5xiM3Lz2FK43KQlamOz3dmi+WQkKa9vKjUcy10W88krQR8lIWdQNp6V1RykKF8q1m4qm3ZFW+o8Ng4vMyfRZyGY18en5yOTX2qCNeS5Su+iKpVX0TF8vxNprJwHh1ifCdXHoaf3iwHmcOLcNuajpS1PVG5+O6sAyq9NxMXsiMxvQV/TVgJPdemIi9gMBwdZCjbcAI0LfLiAhXPKHFrAX92dsAL7RfgjtE/i+KMJmeU8YvwcQX+n0MHLL4n1u41GaqzIg3rXVWXF+/OjNa7vCBpdTDRbEkRKETIaGeUFYQ7bCwccnD0m1eF5mONz7armo+Fx/DNy2VV16W8xcrrmNOGF84RblvSwGWchc/wPhi25AJ4x7kHy+DC/9xT/gPMu6mE8qYXPuSvkfm71ZXfx6yLBeBS1qBHRT7Pu5gZrUD62p54QSZD2VfG4bhIi104+pyT+K5xOTg4VMUnfveLb/6wkCk4NAp1y8hQpqY7gk00fS1urzAEo4XLC80NNG0ESatlQXMlRYC/Cyzc9ayEXusM28Yc0o5/j3f4mzTl38QPZ4TTLJSxnnifb07/rxv8HvJnpzxcXj8F42cF4k6hEnGLPhbOfhV7rhXuROcGDkXNMryA41VnTfl5TGtZFZUq10SHuZeFfxSFh0ehns41YUGwuxDDN8l/vcj/0GTwxyXj4Lhm+B9/lm3+E86pimaQyfJi4dGxaFBWBofybTDH5O3nXNw5vhuHrom3vxVXZ6kvL4zvLJO0luuAcjAR4FCYuAo91Xc9p1/IQm5uLnKz05EYcxJbf+uHxlUcICtTFe//dg7Z4CAvyMXD9X2EO7bl3/oJ57JyVTF8nDClYLNbVeFOdIsZkVAoc3DmhzdRTuaAKr3XISm3EHqtWEUh8nKzETmztfCTU8VuK5GoBLi07fispup34BdbfYd997Xi5tw5BK+BTYQmdpnqH2NuBH8X2ro/Lm0L3Bz5/ZSB44c/Yl+8/umWy4jCprGthbvbL3RejiR1C1pRmFd83A9W9VRdXrwzHRcEHnnIK1QdJUlrXb1QlCiBPITN7YBaxU8gGTzJo/k99X8N4TrvNNI4DskBw9CgnOYBCfH8mt9hZWVqwX3dNoxqyl/r6eR1+B+a/xImPKSB3NP48W3VQxjFcQ5lUHPgNqRxClxf2k11tpU5oEzl+ni3Y2d83Oo1VBeunx3wv1f7YXFYhlXNYi2SAkTMaQfHMurmeoWX8Hrrjuj6SRd0aNMEThXLCOXnf7/99kCysK/CsBl4l/9Hp3tcBvNlHHtg1X2OnojSgqa5pyeQgd1DnIwe15M5OKBs+Sqo9WordP9qDgJiNE1CJe4s61L85Tb3heXX8Y8v+h6dgw/5M3XxF9oB5Rq7Y32k+jHAjAAMrcM/HKGVuoxjZ/x2PE79E08WIleNQKuauo9YOqB8jWZw/XELLqdbe+PIgB6XgYjVY/Bx/Yp6ZeGf9nL4X120HjAdO69p7yzn7h8FZ+Efh7bc2mOUCTfTPvh+P27kgKQ1QE2L9kIgNxGRRwOxfXsADp6+hmRTN6aelocyE3HhIdjjvxV/bA/A/pNRSMjWa8wz74Gax8zIKIAIPFsCJO2z5U97JwLMBEhaZmQUQASeLQGS9tnyp70TAWYCJC0zMgogAs+WAEn7bPnT3okAMwGSlhkZBRCBZ0uApH22/GnvRICZAEnLjIwCiMCzJUDSPlv+tHciwEyApGVGRgFE4NkSIGltzr8ICVv3ocvUW6o9KR9hx/SDGDv2gHo6hMUn8m1eCtrBf4cASWvzuuRwY946VOl9WdgTlxqJni+twfA5ZzBvHj+dg/9FWz2tbvODox08AwIkrc2h60tbGHoQb7Q5hWsi702yeVFoB/8JAiStzatRV9oiJPhuwkttg/HjVzvRp/9ezNyRCm2vSpsXhnbwHyBA0tq8EnWlVSD0u2Wo1/YQVh+Ix+FNx+DivAj9NmbavBS0g/8OAZLW5nWpK63hzopw33cTXnQJM1xBy0TAJAGS1iSap1ghT8Kaiadx6HER/7JPXJ+zFtX6XRFGaos5fA0n4rSvNMnavB3V2p59ip1RqL0RIGltUeOF8ZjQyAfD9uSB43Kx8wsfvPHdfQD52P6ZN14deQNpvLcFaVjafSGa//K3LUpB2/yPEiBpbVKxSlxb7o/6VRfglZcXoNpru7DuhursKr8ZBfdmC1DvrbV4t6E3XnU9h/Oa95zZpCy00f8aAZLWhjVakPwI0Vcy8Fj7el3V3pQFSIhJxpX4fL3hHmxYFNr0f4gASWtlZXp4AFWqALVr0/Q0DHiGW7ZYWQl2GkbSWlnxP/4IVKgAbN9O09MwkMmAVausrAQ7DSNprax4Xtru3a0MprBiAm+8QdIWw5A4I11a5R2sG94F3wYYjmqtxP0to9F9SiAubxqFLj+HiA7Wy6Wdx+rvB6GHiwt6Df0ZW6Ksu/sSMmk5/HtPk3h4tstG0pYMW5KWnaN0aaHA5Rkt4dhjdfGAQcLulDexoH1N9FxzH1dnt0aVvluFoQj1iqKMg1+PunhzyBIcOHMagXM/RUPnQdierP29Ui+/mQWS1gyc53AVScteaQzSAsrYefiwejeseKCVTXHNA23qDIT/YwViTEmbvgtftfwS2zTj2PNDIbauiy/36o8mJqX4JK0USs9PHpKWva6YpIXyHpZ2rgGXpffUo4opEDn9HTQYvhfZMCOtQbm4pE3o5/QOZlxm7+pC0hrAfM4XSVr2CmSTFhyS1/dG7Y4+uMuPISQ/j6lvvYEJofwZU6K0uVHw7e6M19x3Qxg7mLHMJC0jsFKenaRlryBGaQGkb8dn9T7CgltKFJ76Do2b/4xw4eEBy9Jyaafg4eKMVz5djigrx+wladkruTRHkLTstcMuLbKxb8QraDs3CofHvo4PZl9TP9VjXlrlgyB806IOWozajjtP8aIGkpa9kktzBEnLXjtWSAsUhI5H4w/64dPGLlgcpxlr04y0imtY2LEOWk46glTtPSz20gIgaa3CVmqDSFr2qrFKWuFatml5VO21Vue6VCVteZ0RuPmRrMs1noLCY+PwclmDEa4dKqO/fx5ziUlaZmSlOoCkZa8e66Rl30+JRZC0JYayVGyIpGWvhpKR9u+/gePHxacdO4Bjx8TXRUczl5ikZUZWqgNIWvbqKRlp+/YF+Ce/WafGjZlLTNIyIyvVASQte/WUjLTm9uvoCAQEmMvBtI6kZcJV6jOTtOxVRNLyzLjHCJk+GHPOGPZWNw2UOgyYZsOyhqRloaXKS9JyqTg5ywW1y9WAe7D0Z6FJWvYvm1gESStGxXyafUsrD8d8l0Zo3GM4ejZyImnNf1dsspakZcdq39IqbuDk0ZvIkV/GjHfqkLTs35+njiBp2RHat7QaXgqSVoPi3/4kadmJk7Q8M5KW/ZtTQhEkLTtIkpakZf/WlGAEScsOk6Qladm/NSUYQdKywyRpbSCtMvESRk7ei41Jhl2aOFwNDED3NbeBnJuY8n0w1ifq55HHnoPbtFM4+6QIaacOodOUwwhI48cE0vxxiArYjb5/PBASss4dQacJ69FOmDag/cSNcPlpNyYGxGsCkHv+qE4eTd71aDcpBMHF42wq8eBSOL6dvg5NP1+IWm5L0HJKMDzPZ+ApelIWl8HUDElriozpdJLWNBuza8z+TqtMwawxc/H+1jRoOi4KG3vyAD9+6Q23P3OBrEj06LEaM+/oS1t4YT8auAVhr7wIiYGbUaGTB+rOjIb2tVxKnF62DM4LbgmbfHzgD1QaGoTV52/jcPhtHA67iR2Bh9C+nxeuq3eeddgflQYHYqUmD5+Pny4k4sETfjNFSDi+B6+6Lsfn/rGISMpBSkoKDu0OxFuuy/FtpPTfr81CE1lJ0opAsZBE0loAZGq1WWnBIS5gE6qNPoFoHWsLIg/itc/2Yh/fI1GitJXcN6Btv0VwC8lU/wMwlraywX4AJc4sX4r16rMoL23lkaG4qFMWvePKv4tvvpiPznse6/+TgQJhm/7AJ1sf2OxsS9Lq1YSkBZtLu++FFkhfuVFSYaRk2uk2A/Oq9oJf85ElMzUbjq3VOwLNmzNND2s2x6omviaLzKVfRp8+K/FzrMaUQuz18kHj5fdVAkiUtsrkMIQd3IG6/Xdgo/DKWUvSFiEnMRbjRs7DeeEsCliStjDqEF5z3YEt/5g8HJutIGnZ0dpcWq8qPXB96xH2kpmISDh3Dcd+Xo0w34CSmXx2IWbMDMDXl2na5+KLb9rxY86a+itAoKcPGq9IgPBE8z9X8Vl/neawZGnDkajMxOYZi1Dnl0uIVxpL+0Ln2ajY3ROV+OmTOajithLdfC8XF4yXVi+POq/jtEjhTSK5R3egypDDOKWWHMosnPrzIvz2RmBl0AWsPPYAKfqt+OJtP+0MSctO0PbSOrriesAp9pKV8gjzzWNV4fMiD6LRkIM4Li/Cw4P+cJp0XvUWS3519iX06uGHGbf1bSgM34f6A/bioPqatsrkcPD3qrjUKxg40Bu99qfhhME1beVRx/FXVgEy0lMRtGoDnIcFYovODS7hTDviKM5kFSAzRztl5ataAQVng1DbLRj7NP0llClY57sHX3gE4PPvfFHxy6MI0whdwvVC0rIDJWnZmQkRUqSFMhHTRvpi1Pk0LJuyCH0O56jfF82/fjYWw/r64OsL+u9+zgzZgWrDjyL8iepGlEZa/mZR4rHdcO67BSNnLNG7EaV3Tcv9g22/+6DqmNDiI7PUPOab8p/2XoKxF4zvE+edDMBLJG0xy9IwQ9JaWQuSpAWH2G3r8crPO/HRoCAE5ujsjMvGxl/nw/nXCFzLV6VzOUmYN3k+Xl54B3m8pIGboZWW70KYjZ0ePijn4oE6OneP9aTls6VGY4CbJ8LUN30tSQvI8df6Nag+ZBeWXs0uvulUkHYfK2cvQ8URxxGhuTTXOYSSmKUzLTtFkpadmRAhTVqAS4lAtx4eeG1JvNHAZIrEaxg/biEqufrgDfelqNNzHl796RRCM/jfZUWk5YVMj8HQz2ablRbgEH/AH+9vThIEFK5pO82CzHDq7IPR4eozPZeDE9sD8cFALzgOXIrGgxfixe4L8e6MUOy+p2k3WwnLTBhJawaOiVUkrQkwlpKlSmtpO7xgmSmpiLyZjBuP5drms+VA2+RQypGSlIrou4/wMF/3oQ7b7I6kZedK0rIzEyJKTlorC/AfCSNp2SuSpGVnJkSQtFaCMwgjaQ2ASFgkaSVAEstC0opRYU8jadmZkbTszIQIktZKcAZhJK0BEAmLJK0ESGJZSFoxKuxpJC07M5KWnZkQQdJaCc4gjKQ1ACJhkaSVAEksC0krRoU9jaRlZ0bSsjMTIkhaK8EZhJG0BkAkLJK0EiCJZSFpxaiwp5G07MzsW1ouE5e3/AL33p3h0tUNX887gDjjZ+ZFqZK0oliYE0laZmSwY2k5JGzog7oNe2PO7lM4e2Qdxr1XC02+PS6JIkkrCZPFTCStRURGGexY2kzsGd0C/VbEF79iJS9oGJyaTDGCJJZA0opRYU8jadmZ2bG0hrAKEfFrSzh2WW64QnSZpBXFwpxI0jIjs+fmsS4sJRKDx+LtWu9h+jndTq+6efTnSVp9HtYukbTs5OhMixxErx6Exk6tMelAYnFT2RJKktYSIWnrSVppnHRz2be0XAqOTmuLOg37YHF4JlNfVpJW92tk/TxJy87OjqVV4sbSrnBqNBTb4/Xf0yQFI0krhZLlPCStZUaGOexX2sKT+Pa1spDJZHpT2fpjDBmJLpO0oliYE0laZmR0I4odmSrCnLSSxvIRNiNH7KlT+PJ7P7zafwGcBq1CjyWRuJCt85qX/DTs2RyEzl8tQd0+C9Fw1B+YsD8RGeo3ryriL2DIlGN6h1GYdAueXpvhMtIXTn0XodHorRjlfwt3bfeqJ739syyQtCy0VHnt90zLzkovwpy0kDKWD5S4unsLnPpvxPeH7yE2NRtx16/ih4kLUGNymGocnicpWDxlIep+dwQbo9Lw4FEGwo7/iY/6LIBLQBr4Rr38+lE07bGjuGyKxEvoN9Ab7y2MwMqLqXjwOBPRYeH46usFcP4lEjdt9FbF4gIwzpC0jMAA259pPSt1Bz+Ux/Ff1pbO6adVCO8zHvjlF6Yp9INf8GMbUy9htzyWD5ceBbc+izH8rPr9qeq645IvYfDY3fC7r0RKyE7U/CwYwXrDdRTh/sE9aPN7BPgRR/Sk5fKww2MhnD2uGY0IwKVFw81tIQaF8gMJlZ4/kpa9Lmx+pl3fbgLWfzgemzt/XzqnjpMQXL8r0Lkz03Tn5c7wfnuLSeKWxvLJO7UHNfoGIlDfWZ3tPcGe2QtQyzMWuTqphrN60hbcgHu/hfjyrNhwAHIEz1uI2nNvGG7imS6TtOz4bS4te5GejwizzWPhEMyN5VOElL1bUcn9z+JBsoyOmsuB3w+eaOL3QDUWkFEGVYKutFx6BLp0X4lfbugPNaLKySFyvR8qT4kwsaVnk0zSsnMnadmZCRGWpQXMjeWTE7oLjgP24ZDJm0Ny7JjphXret41ecq5bZF1pkROFvr18MeGS2E9YChxb7ItqM8wNGqa75X9nnqRl50zSsjMTIqRIa24sH+XD8+jYYwV+0oz8rClH/m2MdV+Gb84XIH73JlQZbjz4VW74ATQZdgAH8g2uaZXp8PluHpqtemAsekECprjPQ6eADM2eSsUnScteDSQtOzMhQpK0ZsfyyUWgly+qf3MEe5PUp9v8R9jlswpVB+/HoRyAy4zF8EHz8f7KG4hTX/vmJsRg7Kh5eG3RbWSK3D3OuHAITV1XYERICq7mqH464nJSsMlrBaq5H0SIeqBpKw+7xMNIWnakJC07MyFCmrTmx/JBThJWeq5Gre5ecB6yBM6unqj5dTDW3NG2mbNuRmDYaG9hvJ9Gg31QrfsCtPKKRJRaYr3msVAyJeLOHIOr+3y85LoQjYYtRR3XBWg67RgCE8WazVYCKKEwkpYdJEnLzkyIkCqtlM0rcjIRczsJV5PyTdx04pCZnIrLN1MQ94/EH1o5BQqyMhFzNxX3/il9smq4kLQaEtI/SVrprPRylqS0ehu2swWSlr3CSVp2ZkIESWslOIMwktYAiIRFklYCJLEsJK0YFfY0kpadGUnLzkyIIGmtBGcQRtIaAJGwSNJKgCSWhaQVo8KeRtKyMyNp2ZkJESStleAMwkhaAyASFklaCZDEspC0YlTY00hadmYkLTszIYKktRKcQRhJawBEwiJJKwGSWBaSVowKexpJy86MpGVnJkSQtFaCMwgjaQ2ASFgkaSVAEstC0opRYU8jadmZkbTszIQIktZKcAZhJK0BEAmLJK0ESGJZSFoxKuxpJC07M5KWnZkQQdJaCc4gjKQ1ACJhkaSVAEksC0krRoU9jaRlZ0bSsjMTIkhaK8EZhJG0BkAkLJK0EiCJZSFpxaiwp5G07MxIWnZmQgRJayU4gzCS1gCIhEWSVgIksSwkrRgV9jSSlp0ZScvOTIggaa0EZxBG0hoAkbBI0kqAJJaFpBWjwp5G0rIzI2nZmQkRJK2V4AzCSFoDIBIW7VxaDukRGzB1cE+4dO6NER77cLdQAjUAJK00TpZykbSWCBmvt2tpFbG+6Oz8FtxXhOBc6CaMb10TLX4JM6YkkkLSikCxIomkZYdmx9LKcfq7xmg8IbR4KMm8iI34fdUZSRRJWkmYLGYiaS0iMspgv9Iq47DwYycMWn0UflOGwW3Al/hx9V9IExsl0ggbNY9FkFiVRNKyY7NfaeVhmPpmFTi+8hG+8duPI8G+cH+7Jt755S9JFOlMKwmTxUwkrUVERhnsWNpw/Nzsf3j714vQjHSTF/I1XnllrBEksQSSVowKexpJy87MfqXlkrCiy4toO/8WNENaKSJ+QXOnYZIokrSSMFnMRNJaRGSUwX6lhRK3fDqhRutfcV4YszUDp398B7V6rTGCJJZA0opRYU8jadmZ2bG0AAquYd2QZqjToCXeb1EfTm8OxcYb2rFhzeEkac3Rkb6OpJXOSpPTvqUVKHDIfhCD6JgEZGnayRo6Zj4lSZufhj2bg9D5qyWo22chGo76AxP2JyKj+A61HDHH/oTbuGVw7uuNukPWoNfiC/grSzWCu5nd/2dWkbTsVUnSsjMTIixK+yQFi6csRN3vjmBjVBoePMpA2PE/8VGfBXAJSBNufhVEH0HTvuvx46mHuJ+Ri8S4W/D4YRFqT7+MB8ViW1nA5ySMpGWvKNm6D8bBrqf3xmBH7c7ABx8wTQl1P8CyN/1MEC9CSshO1PwsGMH/6GYpwv2De9Dm9wjEKotwb9dGVJkUhgQdQRVxFzHK4xzOPdGN++/Ok7TsdSs7M/cP2PU0ZyuihkwB5s5lmg5/NBcTP7xogvgT7Jm9ALU8Y4ufthLLqLh7Fu1dF6DlzD/hc/Quoh7JoeOvWMh/Lo2kZa9Sah6zMxMizDaPuRz4/eCJJn4PYP62VhEy71zFTK+teGfgXJRz8UTdMbvgEZ5V/DOUlcV7bsJIWvaqImkFZhwSd3+HnuN3Ilniqc6stJBjx0wv1PO+jQKzdcJBWXzzS4nHCfFYt2Q9arhuwbIkiQUxu/3Sv5KkZa8jkhaAMm49+jiVQYUOi3FPoivmpeUQv3sTqgw/ijCDa9Pc8ANoMuwADuTmYM3UeWi9KaX4iSyh+uS3MXqgD0ad1zynxV6pz1MEScteWyStIhZLuzeH24B2qFJi0gJcZiyGD5qP91feQFy+qmJyE2IwdtQ8vLboNjJRhIRD21G7zzp8G/IA8TkKFP7zCEf8t6H+wADsSLePn31IWpKWkUAhor06ofmIQNzb3BdVS1BaviBZNyMwbLQ3Krn6oNFgH1TrvgCtvCIRpZYYXD7C9x1A1xGLULWLB8r38EbTyfuw8nq+3dyQImkZv7IA7PpMmxv2G9q2HItDjznkbS15aVXVwSEzORWXb6Yg7p/iC1j2mvqPRpC07BVrv9JmncIPrd7GmL0JyMzMRPJaV7zY3gsxmXmSKJq/ppW0CcoEgKRl/xrYrbTyC9PRqmolVKqknl4oB4dyFVC5/ihJFElaSZgsZiJpLSIyymC30hqSsF3z2HBPtKxLgKTVpSFtnqRVcyp5aaV0BpAj9tQpfPm9H17tvwBOg1ahx5JIXMjm7xwXIfHYAXT2vabz23ERMq6ew6DJO/CLqj8hAAVCl6/HV6f510jq77P1zwex4lqe/k0ts50YxPYp7YtkbS6Slp0cScvOTIiw1Dy23BlAiau7t8Cp/0Z8f/geYlOzEXf9Kn6YuAA1JofhupLD3R0bUPm78+rfjouQfuUkPi77On8AACAASURBVO63CJ/s+BtZmnI/+Rs/jfHHmvQiGO7zwOatqNdvBzamqn8+stiJwXCfmp3Y7pOkZWcry4hLgr1PebF3gLg4pmne6Dj07mrqeSfLnQG49Ci49VmM4Wc1v/+oKo9LvoTBY3fD775CR9oiPI46gfZuvui3N0XveWZl/Cm0n/wX4sQ6IChTsMo7AN5X+bvWUjoxkLTsCv37EbJZsk6w98lb1g6QyZinoJcnmawxS50B8k7tQY2+gQjUd1ZnexqB/sLlyOP4sI8P3A4+gv671ItwP2ALPtyoeqrKcJ+5ek93SenEoNmn5uyuUxwbzdKZlh2sLCP+Iex9yr95F4iPZ5rmjo6Hazdz3QHMdQYoQsrerajk/ifOGzzmqK1ClUD/G7AMjd2WoPHn89BsWRwytBkALhcbpq/GFOFMyq/Q32fF/mswcPNtPOBPtJI6MZC0unhL67z9XtNyj3Fs4QSMHTtWb/pmUkm9I8p8Z4Cc0F1wHLAPh0x6rxKoQs9VmHAuC9mxJ9DG1RfDTmZrbyzlxGDIV/txuHgb+vsMPXgIbft4oUtgBpSSOjGQtKVVVN1y2a+0yMSFPxZg3rx56mkm3FtVheNH83X5mJw3eyOKs9wZQPnwPDr2WIGfrhs8JZV/G2Pdl+Gb8wU617R8MZS4sn0jHN38sTpR1e4tCN+PFp4xEN5LJ7pPBQ57+8DZ+xYKIKETQz5Ja7LCS9EKO5ZWvxYyj07Em86fYm28gUT62YqXzEorpTMAl4tAL19U/+YI9iapT5X5j7DLZxWqDt6PQzkiAikfYcXUBXCceAaX5UqcXbka/Q7lqs+8xh0Qbl44i14DfTAoNEfIY7kTg8g+i4/YNjN0TcvOlaTlmeX9hZ9b1EaXpdp3IFtCaV5a/hpSQmeAnCSs9FyNWt294DxkCZxdPVHz62CsucNLLC6QMjkKbv3nouXKS5g5bguWJOv0BjLYZ233zRgd/DfSdW5Ime/EoNpn+U6zINOduqyDl+47cSzBYVhP0jLAUmclacHhwVpX1HhzCs6a+gVHhKtFaUViTCUpcjIRczsJV5PyLbzpQmcLXD7u3M1Elo6QOmstzJaeTgwkrYWqEllN0ipvYN6Hjuiw6A7TK15KUlqRerGbJJKWvartXlrl3YX4qJoLltxnO2WRtOxfNrEIklaMivk0u5c26w83VG85A5GMb3chac1/saSuJWmlktLms3NpFbj6e2tU67dV9bOJlovFOZLWIiJJGUhaSZj0Mtm5tHosmBbMS1uE5NCD6DhhI4YffGxwrVyIw2u2ov2kEAQLP7Dyu1Ug7vxpDJ/sh1fcvFFvyGp84n0WBxN1T//6PXgMhxBRxF/AkCnH9I9BHo/J4/ciMM98LP6JxaRJ69Fuwnq0m7gBH03agt6eR7A0MtP4xhiXhT8WbULHBZcRJ+3XMf0yGSyRtAZAJCyStBIgiWWxJO293RtRodscVB13BrG6X+7saxjkNhvlu23Fqgz+5xoOdw7uQP2+a/B18F3EpGbj/p3bWLpgNWoM3I416p9aDHvwGA4hIr9+FE177NApqhJ8WutpkbgXZX74ES49Al27L8PIg7dwOPw2Dp6LwdqNu9DU1Qduh/mnqbR/yntn0PYzPzQfuAq/3mS7D6DdinaOpNWykDonO+25FXY9eWzGpSE/AJ6eTFPIR56Y/MF5E5yLwEtbZfx29BiwDp46N7keH92FxpO34J0eKmm5LF5iH3yhfgCieIPcP9gyYyGcPK7hMSz3GjKSVpmKmC0b4LIzHXctDD8iSNtjDWbH60rI4W7QVlT/bB8OF3dq4BCx1g91Pa8i2GcJXl10R6/HUXHZGWZIWgZY6qyydR+Og11PbcZid20X4MMPmab7dT+E71vrTBBXSzvlL6z19MEHW9NUZysuF5tnrMCIoJNoq5Y272wQarsFYa/Ib8S5Z4Pg1C8IwQWAYQ8ewyFEDKXlksPgO2UdZt7lLMaKSwtwGZHo3mM5frimPtfK4zFhyGJ8dV6OwqtH0KTfLmzL1Hm4wwQNc8kkrTk64uuoeSzOxWKqlOZxlSkRiDsThAbfnEaMEuDSL6HPl/txIO6sWloOycFbUGnEcUTotkHVe1fcDEWLHluwUngHsn4PHsMhRPSlLULqoR3o+/UR9UBe5mNNSQt5LIb28cbwc6pr66yzwXAedhin+Ae2lMmYOdoLLgH6zWeL4AwykLQGQCQs2re0ygTsnT1ep5fPN5i8LtL45osISKnSJufdxMjP12J2vBJJ+/zx1uI45CRqpC1CZsgOVB10CKHFPXW0OyuMPIhXXHdim/CCSP0ePIZDiOhLW4Bdc/zQYpFmWBLzsSal/ecyXHssxaRo/j9OLrbOmI+KQzZjiGcghnkGovuX81BhVCgiRf7haI/C/BxJa56P2Fr7ljZ7Bz57qQn6/6bp6eMFn+Ab+sN0iFEDIFXaFE6Og96+aLPpLpZNXYlvLyug1JFWmXgeHXquwNQY3TvF/E6f4OzK5XhxUhjinljuNaQnrfw2vv4qEENPFgr9aC0NP2JK2oxTgajXLwC7cgAuJQLdXFfgy4BobP1TPR0MQXvXJfgm0mSnYBP0tMkkrZaF1Dm7llYe/jOavz4BJ/RfByGJnXRpgbwL+/Hq0BV4c8QRnHkCPWmBfBxZshyOw4OxOY7vQMffUC7A1ZBgvOm6HOMv8HeBjHvwGA4hoiut/OoRtJp+GRuEu9OWYw2l5eT5uHMpDAOGzEebjX8L3fpu+K9H1fFncUPvrJqP7b97o/bvV/FYEjXjTCStMRNLKXYsLYfUNT1QteVg/PTNIPTt+wUm+hzBfZFmqhhEFmkhv4tvBs1G01WqoS91z7TCtp9kIGiNP5p86oU6Q5ahkZsXarj74+fT6drXyxj04DEcQkQrLYfojevQNSATxTetLcQK0nbV9uwp09kTNQavw6CtcXjI/xdRJmH6V/PQSeT6Nef8Xjj32oxlUocbNIBJ0hoAkbBox9LKce6n5qjV0h0+gcdxbM8iuDevjjfGHkK6BHDmpZWwAZEsnDwP9+JTEJOcr5VVJJ/5pCKkJ6bgXk6R9g0X5gOe6VqSlh2/HUtrDKvw5LdoVH0gthc/qWScR5NiC2k127anT5KWvbbtWNpsXD+yHUditT+QKqJn4t2qvbFR7+1p4lBJWnEurKkkLSsxux41LwtB7vVQx20TEvibK1wajk9qgRouS3BH72aLOFSSVpwLaypJy0rMrqUFlPd245vWTqjd+D20aVoHTi1HYstNaXeizEvL0GFAmYoVc7Zg2gX1Tz75qfD324kPhvmgVt9FeH3MNowLeoDHuk8YyjNwcGswXEb6wqnvIjQavRWj/G/hrrSis39LbBhB0rLDtePmsQZWHpJvRCHqxkOm52gtSSu5w8CTvzHVfS76HeV/61Tg9IrlqDXhTwTczkRq5j+4ev4Uug3wRt/DWaobS8p0rJvug1pj9mPlxVQ8eJyJ6LBwfPX1Ajj/EombEloJmiMvDZ8kLXstkLTszIQIKdJK6TAAXWm5TPh8NxedAtSCCnvicHXfPgzakQA5ivA4NAB1BgZgp/Boo7bwXFo03NwWYlCotPF1tZHPdo6kZecvW9FsOOx6auKOLdU6AM2aMU0pNZphdZPFJohL7zCgJy04XPHfAMc+qzDA7zy2XUxGUr7uA/lPEDzXG07zbsBYTTmC5y1E7bk3TJSpdCaTtOz1Igtfugd2PfkG4Pq4mcDSpUxTsMtSjG131QRxjbSWOgwUQV9a1dNQUcdOYPgPq+DcwwNlPlmE1jNP4XAqJzySuHKKJ95amyjyqCWHyPV+qDwlwkSZSmcyScteL9Q8ZmcmREhqHk+JgKUOA0bSKjltp/Mnebhx6RImjl+AalPCEacswObp89BwSbzIwxcKHFvsi2ozrlh5RM8mjKRl507SsjMTIqRKa6nDgK60XHokevRag1lxureKgcLwfag/cB8OyjmhQ/uLw4/ivOGd4oIETHFXPWpo5SE9kzCSlh07ScvOTIiQLq2FDgN6N6KysOFXb9QYdxibr2UgU65AesIdeP3sA2ePa0jhXc6+gwnuXmjmFYWrOarrXS4nBZu8VqCa+0GESHiay8pDtkkYScuOlaRlZyZEsEhrtsOArrT8Je0/f2OVzxa8NWAeyneejcr9lsPFOwJh/2hvSMmTYjFt2nK85LoQjYYtRR3XBWg67RgC9V4EZ+WB/cthJC07cJKWnZkQYV5aKzfKFFaEgqxMxNxNxb1/DPviMm3omWYmadnxk7TszISIZy+tlQUvZWEkLXuFkLTszIQIktZKcAZhJK0BEAmLJK0ESGJZSFoxKuxpJC07M5KWnZkQQdJaCc4gjKQ1ACJhkaSVAEksC0krRoU9jaRlZ0bSsjMTIkhaK8EZhJG0BkAkLJK0EiCJZSFpxaiwp5G07MxIWnZmQgRJayU4gzCS1gCIhEWSVgIksSwkrRgV9jSSlp0ZScvOTIggaa0EZxBG0hoAkbBI0kqAJJaFpBWjwp5G0rIzI2nZmQkRJK2V4AzCSFoDIBIWSVoJkMSykLRiVNjTSFp2ZiQtOzMhgqS1EpxBGElrAETCIkkrAZJYFpJWjAp7GknLzoykZWcmRJC0VoIzCCNpDYBIWCRpJUASy0LSilFhTyNp2ZmRtOzMhAiS1kpwBmEkrQEQCYskrQRIYllIWjEq7GkkLTszkpadmRBB0loJziCMpDUAImGRpJUASSwLSStGhT2NpGVnRtKyMxMiSForwRmEkbQGQCQskrQSIIllIWnFqLCnkbTszOxIWg6PQ6Zj8Jwz0B1RQ5kYikXj+uOTLr0w9JftuJYjDSJJK42TpVwkrSVCxuvtRFoOqSdnwaV2OdRwD0aBhoP8MuZ86Iz3J27CsdDdmNm9ARqN2od0zXoznyStGTgMq0haBljqrHYgrRzh813QqHEPDO/ZCE460haGTkCjRhMQqrZYGe+DjjVcsU4YNMc8TJLWPB+pa0laqaS0+exAWgVunDyKmzlyXJ7xDuoUS8shwbcjqvZcpz2zFh7HuFdfx7cnC7WETMyRtCbAMCaTtIzAANiBtBooCgNpFbj6e2u89Pku7ajq8nD8/FZdDN9X3IDWBBt9krRGSKxKIGnZsdmxtErcmPsBHPv7I1fDTX4W3zd5BWOO0JlWg8TWnyQtO2E7lhbI3tYfL7Wdj1tKNbjsnfi81gfwjNUkmAZKZ1rTbFjWkLQstFR57VpaLnEtejm1wYwwfiRmBeLW9YXzOzNwUcLIkSQt+5dNLIKkFaNiPs2upQUKcdWvPxrVaoAWrd5AbecO+P10hnli6rWWpM09fxSdJqxHO8NpUgiC+f8R+bcwdZLI+gmbMPl0EtbP34yvDmfA8JyviAvHF1OP4ZD69+Sc+9fhMW8zWnyxCDXdfPHO1ENYE5sPftB4zZ+UPJq8//YnSctO3I6kNQ1Hnh6HK1GxeFh8cWs6r2aNJWmzDvuj0uBArDx/G4fDdaYLiXjwBEDOZfTuvgRDg2/prw+/g4jUJ7i6aQ2qfHMa1/WsVeK83wrUmhGNVA6Qx51HF7dF6LDiMk7ez0JS0t/Y7rcBNftshu89DnyDwVIezfE8q0+Slp28LCc5HfY+Ff6dDCSzTR7jktGzm+l2NC9t5ZGhuKgnnU4F8dL28MP0m7rnRO16ZVIYOrmuxsw7OuvlcRg3eDFGnisEuBxsnrEADbxuaH+y4sO5TKybvRaf7U1D7BPLeUwVT1sS286RtOx8ZbNknWDvk7esPSCTMU9BL08ySfxppeWl3PjrAry1JrH4scvss8GoPywEp/nnMAuuY3AfbwwVFkwUQ0oeE6H/VjJJy05alhoTD3ufciKigZgYpmnhiBh82jXfJHFe2hc6z0bF7p6opDM5TosUmrZC87ibB8p/or++kqs/1mYUCdvNPB0I52FHcJZvTiMf239fhFYbk4VmL5cegW7dl+PHGNPnSil5TB7Av7SCpGUHbefXtDm4tmM63F07o5vb15i775b2QQsLLKVc01YecRRnsgqQmaOdsvLVkgnN45WYeiVPb31mjrz4zIqCOIwbshTjIxXgHl9Cb7dNWJyobi7nX8NA10UYFWa6iQ4peSwcp61Xk7TshO1YWg4P/hgI59rt8f2mYzi1byEGNn4Vg/wTJVGUJO1TXNOqCsHhwho/vOJ9C7GBW1Dv18tI1lziKjOweNJcNFv9t1ZyIUiOwz7L0djnFg7kWM4jsVOTJCbWZCJp2anZr7TcAyxzeRFt598q/lklY1t/1G43XxLFf0daQHn/DNoN2ga3ib5wP637eGUR0k4H45XeazHlbIb6qS45bp44gJa9lmBMWAEyYTmPpIO1YSaSlh2u/UqriMHs9xzR3197rikM+Rr1aw2TRFGKtC90mgWZ4dTZB6PDFaqffLqJrO/kAWfv2yh+kJLLwsof5qLc4EMI1e0ILJSyABeDA/FuX09UG7gUrw30QqU+qzF8fzK0RyUlj6RDtkkmkpYdq/1KizwcGdMQ9T5dhRv8CUz5EHu/aoRyldwkUbQkraSNlFQmZQHuxz9EZFwG0oWbViIblpJHJMzWSSQtO2E7lhbgHh7C1HZ14FivCd5q2hzdR7nhbaeSOdOyV4V9RpC07PVu39LKs5Gdl4f0hDgkZsqRvfdL1H9vliSKpepMK6nEpTMTScteL3YsrRynJzVGg6G7Vb+bym9hRY+6eG9WtCSKJK0kTBYzkbQWERllsGNpAeW9HfiqWW3Ub9kW773RAG99thyREp8/JmmNvktWJZC07NjsWloBlyIT969FIzYxu/inHykYLUn7VL18zqqetMqNv4ofZ6xD44HeqNV/KVr/fBArruWpe/DkI2j5JnUvog1oP3ETukwLxPd74nDf6GZUERKO7kfHSXuxMUnzQ6+Uo7R9HpKWnTFJy85MiLAk7dP18lEC8vv43t0b7fyu43JyLtLSUnBg81bU67cDG1OLhA4DflM80Xj+JRzkexGdv4ldB05ggLsXnGdcRpzu043KNMwdvxjNR/rgnXVJwmOQVh52iYeRtOxIZecX74ZdT4t24sqY34DFi5mmfZ0WY8KHkSaJP22HAS75PDr02IQlKarnkIUdKVOwyjsA3leVamnnovWWVD0JlYkX0K33YowO1/6oq7hxHM37B8L/7AG89sV+hJh+ZNrk8dhqBUnLTlbm1+Ir2PX09gj4O34MtGjBNCXVbIHlb640SfxppYUyBfMneqHGqF34cdcVHL2TjVzdli2XA78pxtKCy8WaqXPRxO+BumwKhC5ZigYLbiFHnoAp7t4YcDRXr5O8yYP4F1aQtOyQqXnMzkyIkNI8ftpePlxOMvw3BqPbKB9U6TwLFfuvwcDNt/GAb/qakhYKBHouQG2vm6ojy7mB4QOX4bsovmMBh6iNq1Ftcph+89lKBiURRtKyU7QjacWHBVEhM7dOHKoUaZ+2l49SqT21yrMeIfTgIbTt44UugRlQmpQ2HxumzcXry+8D/LPHf+7ES58sRec5gRjmGYihU1egatdVmGGi87340doulaRlZ2sn0poYFkTgZW6daaCSpLW6l08RUvb/gapjToK/fNX+KXDY2wfO3rdQYEra7OsYOsAbX5woAITnlr3QbF4YtvwZja3CdAmTJ3rhVZ84yd0Qtfsv+TmSlp2pHUhrelgQwNw68zBtKy3ApVxGn34L8OHSKPz1sACF8nzcvHAWvQb6YFBoDjhDaTkFMhLj4TtzKaqPPQH+PpQy4Sza9loPrwTtGZs/qvTju1Gr325szzJ/jP/GWpKWnbIdSGtqWBAelrl15mFKkfbpevkUIf36RYydshL1es1G2S5zUdt9M0YH/4103kFB2tnFvYgcXDxQqc8SfOhxGsce83ecOVxc74eqk8IQr3e2Vr0J8quB89A5MNP8Qf4La0ladsh2IK0GiuGwIJp0/tPcOt182nlL0mpz0pw5AiStOTri60hagQtJK/71sH0qScvOmKQladm/NSUYQdKywyRpSVr2b00JRpC07DBJWpKW/VtTghEkLTtMO5KWHY65CEs3omzfy0dVOrPj9HD/wN9nM8bzPxGZO5hnuI6kZYdP0rIzEyIsSWvzXj4SxulRKNPhPXEuOuzOJGmtrOfSGCZb894Y2PX07mhsr+kCvPce0/TA6T2bdhiQ0svH4lg+cpK2NEr3tGWSnfXyh11Pc7chetiPgJcX03ToYy+bds2z2MtHyjg9dKZ9Wj9KZTw1j62sFinNY1v28pE0Tg9Ja2Xtlu4wO5JWrCcPh8zLW/CLe290dukKt6/n4UBc8WvCzdacFGlt2stHyjg9JK3ZOnxeV9qJtOI9ebiEDehTtyF6z9mNU2ePYN2491Crybc4rn09v8l6lSStLXv5SBrLh65pTVbgc7zCDqQ13ZMnc89otOi3QvtAfV4Qhjk1wZRz2le1mKpb20oroZePhHF6MulMa6r6nut0O5BWek+ewohf0dKxC5bft/yrphRpbdrLR/jaWRinR5BW2xNIM65Q+XFncdOw588z+hrT77Ts4O1AWg0U850ClInBGPt2Lbw3/ZzO4FWaWONPS9IaR9gwpZSO0yPliElaKZT085C0AHKiV2NQYye0nnQAiRLPQKVKWv06fa6WSFr26rJzaTmkHJ2GtnUaos/icGRabhUXEyZpi1E81QxJy47PrqVV3liKrk6NMHR7vN67g6VgJGmlULKch6S1zMgwhx1LW4iT376GsjIZZLpT2foYc8Tyb7WWpC2JDgOAEg8uhePb6evQ9POFqOW2BC2nBMPzfIZ60OkipJ06hE5TDiMgTeel5vyrUgN24y/18CDpZ0LQacJ6YQiR9hM3oOMUfwxdEY5jyRKvBQy/NSW4TNKyw7QjadnhmIuwJO1TdxhAERKO78GrrsvxuX8sIpJykJKSgkO7A/GW63J8G8mPhF2ExMDNqNDJA3VnRuNBcfNeidPLluGg8MtVEVL2bkGlYXux7vxtHA6/hX0nIjFz5nI4Dtz5zMf2IWnNfcvE19lc2rxHmUi/k1iqp9xrt4A7d5gmr1F38GlX0+NrPPUIA/l38c0X89F5z2ODgcEUCNv0Bz7Z+gCFamkruW9A236L4BaSqc5rLG3lMacQo3tiVaZj+Q/z0cD7tvg3419KJWnZQdtc2jkVumKWrFOpnrxl7QCZjHkKemWySeJPK21h1CG85roDW/4xuYviM22VyWEIO7gDdfvvwMZk/nQrQVoUIXX/H6ji/qe5Hdh8HUnLjtjm0npVc8VFv73ISkgptVPB3ftAQgLT5DkmAb26GY0pWVwDvLRP02Eg9+gOVBlyGKc0u1Bm4dSfF+G3NwIrgy5g5bEHSOFUzeMqk8ORqMzE5hmLUOeXS4hXSpEWKDgdiBr9govL/CxmSFp26raX1tEV1wNOsZeslEdIuaZ9mg4DBWeDUNstGPs0T1QqU7DOdw++8AjA59/5ouKXRxH2REdaDuBSr2DgQG/02p+GEwbXtEbNY/6l5Yf8UWVIyDMlTdKy4ydp2ZkJEZKktbrDAMClX8anvZdg7AXjO9l5JwPwkoi0wo2pY7vh3HcLRs5YoncjyljafOzxXITaHjFWEiiZMJKWnSNJy85MiLC1tPyQJX+tX4PqQ3Zh6dVs9U88QEHafaycvQwVRxxHhFL/TCsUjMvGTg8flHPxMCFtEQqz0xEasAuNeq/FzOv8aHrP7o+kZWdP0rIzEyKkSPt0HQZUQ3+c2B6IDwZ6wXHgUjQevBAvdl+Id2eEYvc9vt0sIi0flh6DoZ/N1pO2QqdZxUOIlOu+AK+NC4BnZPYzf3cUScv+BSRp2ZlJktbKzYqHKeVISUpF9N1HeJiv+xCFePbnKZWkZa8tkpadmRBh6Uxr5WbtLoykZa9ykpadmRBB0loJziCMpDUAImGRpJUASSwLSStGhT2NpGVnRtKyMxMiSForwRmEkbQGQCQskrQSIIllIWnFqLCnkbTszEhadmZCBElrJTiDMJLWAIiERZJWAiSxLCStGBX2NJKWnRlJy85MiCBprQRnEEbSGgCRsEjSSoAkloWkFaPCnkbSsjOzI2nFhgXRAuMSd+O7nuOxU+iPqk03NUfSmiLDlk7SsvHic9uJtOLDghTjUsZhfR8nlKnQAYvvFb+zpXi12AxJK0aFPY2kZWdmB9KaHhZEhUuB2KXd0dxtANpVIWnZv0JPF0HSsvOzA2nNDwtSGO2FTs1HIPDeZvStStKyf4WeLoKkZednB9JqoIgMC5Ibht/atsTYQ4/B5W0laTWo/sVPkpYdth1Lm4VTP7TC22P2IiEzE5nJa+H6Ynt4xWQiT0K/cLqmZf+yiUWQtGJUzKfZr7TyC5jeqioqVaqknl5AOYdyqFC5Pkbt498pbP6PpDXPR+paklYqKW0+u5R2/Y+fIO1+rJYCP6duHs84fAp7Zg/WXyeyRNKKQLEiiaRlh2aX0kYc3Qafgc764uZtRbfKLdG7Wy3EXwq1SFKStE+yEBp4GP3GLcfLbt6o88UqdPU6jQMPNe3vfAQt3yQM19Fuwga0n7gRHadsh/uay7iQpXpDhSL+AoZMOaZTHgXizp/G8Ml+eMXNG/WGrMYn3mdxMFGzTZ2sz8EsScteSXYkrT6cKwbi3r9yBt79aksSlt+SRWm5LGyfswSO7rsx/0wi4tJzkHD3NhZ7roSj+2Ecy1G9A8pviicaz7+Eg+H8kB23sf/kBYz7Zj5qTovEfSUgv34UTXvsUBeew52DO1C/7xp8HXwXManZuH/nNpYuWI0aA7djTYK035j1STzbJZKWnb/dSsuj0ogbfWgjvPvWRPzZA0B2tqRp+nfZ6P6J6fc15V48gFd7b8ZS7QA7qtqR/41ZU7dizjUFwOXAb8pctN6SqjdqX2HkAbzcwx8bc/Sl5bKuYZCbD74IzdF/IRv3D7bMWAgnj2t4zP4deKYRJC07fruWGtsqsAAAFfBJREFUlscVunIqPDrKcNmpJIcFUeDkkiVwnB6NdHN1IiptEVKO7ETNfkEILtCXNk94gXkQ9orcJ8s9GwQndYy5XZa2dSQte43YtbSaJvHxeaPh06cW0g7sAiIiJE1LhkagX5dsE8Tl+GP6XDRadg/FAwSk3sPWfRHwC47AiqAI+F/LUZ9p58BpXADG+BzAWJ/9GDlzExr1WoAO/kng3dQ2j4uQHLwFlYT3HRvvVnEzFC16bMHKdNNnf+OoZ59C0rLXgd1KqxFWc9NJ01Q2uqtsgqn5a1oF9s7zhpPXTUE8fhOKu5cwfk4AvvDYjQ6DPPHmqr/V0nqiwdQ/MXfbGXj5n4NPcDQO3Mkpll0rLZAZsgNVBx1CqOY/gU7ZCiMP4hXXndiWp5P4HMyStOyVZJfSGgqrwcYirnlpi5B8aDuqDz6AI0YSPcFuj/k60hpf02rKw3/qSqtMPI8OPVdgaozhneInOLtyOV6cFIY43eEsdTdUSudJWvaKsTtpsx8/NHuXWCOuQi5y4ajD17y0APIfYMaY+Wg0MxxnH2kkUyDxSgQGD/PE22sTTd6I0tmNnrRAPo4sWQ7H4cHYHFeguhnFFeBqSDDedF2O8RdMj5eru83SNE/SsteG3UnLKZXITL5vlpSl9XywRWmF4TniscBzHeq7esF5yDK85jYPldxWw219DK7zfoneiNIvmu6ZVljzJANBa/zR5FMv1BmyDI3cvFDD3R8/n04vHu9Hfwule4mkZa8fu5OWHZF4hBRpNZHK/BzExSfjSkI2ckrop1ROnod78SmISc5/LmXVsCFpNSSkf5K00lnp5WSRVi+QFvQIkLR6OCQtkLSSMBlnImmNmViTQtKyUyNp2ZkJESStleAMwkhaAyASFklaCZDEspC0YlTY00hadmYkLTszIYKktRKcQRhJawBEwiJJKwGSWBaSVowKexpJy86MpGVnJkSQtFaCMwgjaQ2ASFgkaSVAEstC0opRYU8jadmZkbTszIQIktZKcAZhJK0BEAmLdi5tFqK2/IwhPV3Qpe8ozA66CaPn+01AJGlNgGFMJmkZgdnPsCBiYDg89P8MzvV7Yk7QGZze44HuDV7HmMNZYpmN0khaIyRWJZC07Njs+EwrR8SKUZi0+RZUvdkKsG94Xbz1U7gkiiStJEwWM5G0FhEZZbBjabUschOjcXzTFHR4uQV+OMm/cc3yH0lrmZGUHCStFEr6eUhaFCJkanu0aFQTtd4ZiY1XcvUJmVgiaU2AYUwmaRmB2fc1rQEsLh2nf3wXVVt7GKwQXyRpxbmwppK0rMTsZnxaMTCZiApYiT1XtG+okJ/+Dq/XsDy6AL81klaMKXsaScvOzI6bx9nYP7I+6rhtFF4KDu4xQic1R3WXJZIokrSSMFnMRNJaRGSUwXbS8iewX4C4cpF41O8+JP8AalRE2yVwifvw/Yf1UKdxG7RpWhdOLUdgc2yhpB2StJIwWcxE0lpEZJTBNtI+AlBZdcVcJCsCP+EFAAZjXhmV5pkk5CH5RhSiYh8il+FVMJKktTSWD5eLgCWb0HXZdSTq7luZDN9ZOzD3Gv9jlOF4P5vQZVogvt8Th/tPngmwEt0pScuO0zbSDlTf4uK3rju9zV7A0hphUVpJY/n8g2WTZ0PWeREG/JmlHerjyX18N9QHX53XDB2iM97P+ZvYdeAEBrh7wXnG5efulamG9UnSGhKxvGwbaV82kFUtrtJBiU0dJ5Wu6aOJCHDuBnTsyDTdrd8Rvm+tM0lY2lg+vLSeaDpxPWoP2InNyerTrZG0xu9GViZeQLfeizE6XOTN5SZLVfpWkLTsdWIbad8zlpZvIj/5XwFO/LahdE3T1+Oi23jgt9+YpqMf/obJ7/9lgrjUsXx4aefCJeBvrJ++CHWnX8Y9vkUsQVpwuVgzdS6a+D0wUYbnI5mkZa8n20h7QF9a4ZqW39Mi9gKW1gjzzWOpY/mopQ38B4rkKLgNWIhPD2ZAKUVaKBDouQC1vW6WVkSSykXSSsKkl8k20vK7mAegnEpeedl84Fe9/ZaShQLcDJqFEb07w6X75/h+7QWk694QMlNK89JKHctHKy2HIjw4ugvO/bZhzf14g2ta4+Yxf4Nqw7S5eH25+RevmzmEUrGKpGWvBttJqy7L/Kqf4nrAKfaS/QsReScnoUntdvj+jxM4s88b/V6tgz4bpDU3zUsrdSwfXWn5EQf+gf8sH9Sashdug3VvRIlIm30dQwd444sT2odD/gVkJb4LkpYdqc2l9XJ0LaXSKnFj7geo1ncLVANWyhH2UzPU+XKvJIrmpZU6lo+BtLy3j67hi4EeKNN5oc7dYx1pOQUyEuPhO3Mpqo89gef8PhRIWklfN71MdiwtUHB+Olo5f4yfdp5F+JEVGNy0AQZsTdQDZGrBorSSxvIxlhYoQvLJQDTooivtbMg6zRImBxcPVOqzBB96nMaxx8/XWLRiLElaMSrm0+xaWu7xOczv2QDVnd9Es1dfwkvvjkNgvGaEO/PgpEir2YItxvLRbPt5/yRp2WvQjqXNRNCXzmjw2RbE8z91co9x6qfWqNlhoSSKLNJK2qCdZiJp2SvefqVVROG3d6qhv7+2/6wieiberf6ZJIokrSRMFjORtBYRGWWwX2mRid2D6+DlITuRJLxvJhfR8zqgxnvUn9boW2LDBJKWHa7tpN0FoB6glCnwpHoBsJm9cLaOUN7fg4nv18FLr7REmxb1Uev1vvC5oLqXbGnfks601GHAEka6e2yRkHEG20h73MQTUX7GBXj2KQVIvRWNyzEJyFK94U1SkSxKSx0GJHGkM60kTHqZbCOtiWePuWocspMelbqpMCEJSGKbZn+ThF7dTPeNow4Det8zkwskrUk0JlfYRlpTvXxkCsySdSp1k7esPSCTMU9BL08yAZY6DJgAY5RM0hohsZhgG2nd9JvHfJ9avtOA4jU5Ht1IKHVT7uUY4MYNpmnByBvo3dXUI4TUYcDiN0+dgaSVSkqbzzbSJgEorxWXk3FAWQCXtDv+9+c4PA6ZjsFzzkC3B2pW1Bb8PKQnXLr0xajZQbgpcVwQ89e01GFAav2StFJJafPZRlp++3znk67ADYczSG0eD9zW7vTfn+OQenIWXGqXQw33YGjOj9xDf3zmXB895wThzOk98OjeAK+POQwpA4OYl5Y6DEitY5JWKiltPttJq97Hs+8wIEf4fBc0atwDw3s2gpOOtPKIFRg1aTNuqe8aF+wbjrpv/STpIXzz0lKHAe1XzPwcSWuej9haO5BWgRsnj+JmjhyXZ7yDOjrSFgPJTUT08U2Y0uFltPjhJKQMDGJRWuowUIzX3AxJa46O+Do7kFZz4AqT0haGTEX7Fo1Qs9Y7GLnxCrQPNmpijT+lSKuJog4DGhLGnyStMRNLKSRtMSEO6ad/xLtVW8PjiuWePizSFu+CZowIkLRGSCwm2LW0mVEBWLnnSvGNKchP47vXa2BwgOZWlWl+JK1pNixrSFoWWqq8di1t9v6RqF/HDRvv83eiODwOnYTm1V2w5K7l5xlJWvYvm1gESStGxXyabaVdB0SX/xNJY2+YL8W/slbkmpZLxL7vP0S9Oo3Rpk1T1HVqiRGbYyFlYBCStmQqjaRl52gbafkHFGqrHq7gn4QSXqFaFQD/0EUp/MtLvoGoqFg8ZBgXRJK01MvHYm2TtBYRGWWwjbTDtU9D6Q0Lwnck+I/8WZSWevlIqmmSVhImvUy2kfYVcWk5ByV2fz6rdE39f0PI2/2Azz9nmqKbfA7Plrv1YOouUC8fXRqm50la02xMrbGNtC2NpeWbyE/KF2L/mEWlaxrtjVNtvwDGjGGawlqMwa+tQkxwpV4+JsAYJZO0RkgsJthG2m3G0grN5FI5yoBFRqIZzDePqZePKDSRRJJWBIqFJNtIy+/0WwAOKnmFG1EjLJTkOVttXlrq5SO1OklaqaS0+WwnLb+PAmB9lQm47l86hwXRYmCfMy8t9fKRSpSklUpKm8+20gJ49r18tAdbknPmpaVePlJZk7RSSWnzkbRaFkxzFqWlXj6SeJK0kjDpZSJp9XBIX5AirWZr1MtHQ8L4k6Q1ZmIphaS1RMjEehZpTWyCkgF677EV3wKS1gpofAhJayU4gzA60xoAkbBI0kqAJJaFpBWjwp5G0rIzI2nZmQkRJK2V4AzCSFoDIBIWSVoJkMSykLRiVNjTSFp2ZiQtOzMhgqS1EpxBGElrAETCIkkrAZJYFpJWjAp7GknLzoykZWcmRJC0VoIzCCNpDYBIWCRpJUASy0LSilFhTyNp2ZmRtOzMhAiS1kpwBmEkrQEQCYskrQRIYllIWjEq7GkkLTszkpadmRBB0loJziCMpDUAImGRpJUASSwLSStGhT2NpGVnRtKyMxMiSForwRmEkbQGQCQskrQSIIllIWnFqLCnkbTszEhadmZCBElrJTiDMJLWAIiERZJWAiSxLCStGBX2NJKWnRlJy85MiCBprQRnEEbSGgCRsEjSSoAkloWkFaPCnkbSsjMjadmZCRG8tOXKAVu30vQ0DGQyYNUqKyvBTsNIWisrfs4cwNERqFuXpqdhwDPkpac/6QRIWumsKCcRKBUESNpSUQ1UCCIgnQBJK50V5SQCpYIASVsqquFZFaIQURsPw7XVEtSptRAvv70Zw73uIlGpKk96UAi6jL+GZE6nfIo0+A3bhpknFeDSrmNix/Vo1041tW+/ES7dd+LrebdwT64Tk52CbT/txIeNfVC7ji/e6hSIWYGPkKvOImynyyEEpBXpBHGI9QtEr5n3UIgiJO88iI7Cfjag/Ucb4dJjF8Z53cBN9UYMy6IpU7uOB+CfWAQu+RrGq8vavv0GdHD5AwPHncXem7oF1dl9eiwmdTmIncklVyaTfHR2K2WWpJVC6T+aJ/fIAbzm/AfmHklDUloO7py5iMGN58Nl8SMARUjx24IqHc7jnq608kRMe3sBBgc8AZcYDpfKqzFx+20cPsxPt7Bn7TF80mAe3p+TDAXPrTAFPp0Xot7HIdhwIhX3Eh7h5PpDaFtrIXqsSBPyCNupshnLEnUFUeLCtJWoOfg68lCEe4s3onLrEOxU7ydo6zmMarMATt0vIFYBkbKoy3Tkb8TnAdy98+hQeQ0m7VSlHwiKhveotajp9AeWx+oeoKqyuZQIdK2yEYvvlWSZRPhY8d0iaa2A9t8I4XBj7jpU+/QyMooPqAgPdoRggEecdGmNZONwddYaVO4WgRSuCMmbdqBmk8M4mV28E2HbqXsC0cApADseq4Uz2o6xtFW68tvUboc/ew5y9sGIfXKVtEbb0MnLS1tlC/xSdCTkcrBjkA+cR9xEjjarMCdVWvYy6fIx2KnERZJWIqj/YrbC8FC0qrYIbYefgF9gAu5k6BihOdO2OY7Qa6mIiVFPV65jTGOdM62BKAUP4vBrWy+8Mek+CiHH7kEL0Pj7BBg1QgvvYuwrCzF8n8KEcJalBb/9L1TbFz9ba2tNONMaSvv/I0Xk7g5AzcZHcNaggCpp1+LXUJ1jj0lBwJhlqKFz9jeU1lKZ9Ploy8cyR9Ky0PrP5eWQ+lckfvhsIxrXnIMy5eejac+j2H2Lb9iqmscvVFyABg190bB48oHjC17a5nEFD1So5IlK/FRxNiq+tAwdvrqA8Ex+2MAsLHGZi48XZUB9mawlqEyDZ5u5+GR17lNIq8CJCUvg5H5DtQ3dsqjL5NjxHG4q1c1jEWkLTxzCa05BCC7QFo2fE6R9wRM1Gugeuy+cHefA0ay0ZspkyEd/l5KXSFrJqP6LGTkoNTZxciRciMHMHj54se2ZYmktXtNW2YSFN/KR+TgTZ5fsxBuvbMOSaOFqlh+kF+t7zUOr31NU17e6COUP8EMTLwzYLgeXHIGuL26Cb4JO0xVKhE1dAadhsShQX9Man9WeIGiYN16beE8tvrosmQXIVE9ZOQrw7QdTZ9q8oEDUfu0QThbqFk4trYRrWsllEuWjv0+pSyStVFL/tXxcFpZ19oLL0izhS605PMXF42hRaw+DtLo3kApxaspKVG0WgmP8mRYcYuetg+NHqrOdZh/8pzzqBFpV2wTfOA7Iu4bPX/LD9Ejd5rkC+0Ys+r/2zS6kqTgM4xvRCDXUJoHMmyDXRYJIN0FUF0He1IVXERUJUdRFJiR4FSwoNL/KIhSvjAxMNKK7iDCpm/wgTNLygzRMMzSpTUaNwxNn0zZWy3Pmdg7/l+fiwGTH/d/397w/z9eE99I0fiaSNvgRFd4bKLu/kuBoHV3x39KG8KLiNtxlw1iM7hp+lew1Lf5bUzyfuEUN/khpDYKSt5uGqZYObPfcw5XuecwFQvgx8wltJ+8g/+hQktICWJ7A+Z3XsLtqOvxIR1sYxekdddhXPY6Z1aPZyuQoLu6pReG5cSzpYLXl8B+QXWdGMbN6bRn8MIQyTwNOPdLPWyN3j6NHNQ3+2Vm0n22Bu+gpev2JbmZFU4uXNuT/jtftT1DsvovLvXEXtGunx6aOtAZriuMTrdD4K0prnJW8PbUAXjU/xkFvHTI2X8WW3FvYe/wlnoefTRp85BN3Iyp8LdzVDU9WG3yDkdPkwMgbXDjQhJxtTfAWNiI3txmHKkcwFnMdGRwexImiWmS6b8LrbUTO1gbsr3qP2fDBNyKty+GDw+GD03kVruxGFB95hh79SK1Lpj9+ckXe1/f5szlrcKzrV+T0eO19pw+bXDXwFD9Adc+3v0/dTUi7bk0G+JgdLEprlhj3T5KABv/cIt6OLOFLIPbaNfbjQvg6MY+BwQVML8eeKsfuw9eUljNAAooRoLSKBcZySYDScgZIQDEClFaxwFguCVBazgAJKEaA0ioWGMslAUrLGSABxQhQWsUCY7kkQGk5AySgGAFKq1hgLJcEKC1ngAQUI0BpFQuM5ZIApeUMkIBiBCitYoGxXBKgtJwBElCMAKVVLDCWSwKUljNAAooRoLSKBcZySYDScgZIQDECxqUdGwPq64HOTlNbTcZhvKu8bup30NEBDAwohpLlkoA1BIxLW1ICOByRLS8PMLg9dJXgc06B4f2RlRVZIzPTGgJchQQUI2BcWk0DysuB7Gygvz89bQaDQGkpUFAATE6mZw1+KgkoTsC4tHqj6RSXwio+SizfKgLmpE2XuBTWqry5jgAC5qVNtbgUVsAYsQUrCSQnbarEpbBWZs21hBBIXtqNikthhYwQ27CawMakTVZcCmt1zlxPEIGNS2tWXAoraHzYih0EUiOtUXEprB0Zc01hBFIn7XriUlhho8N27CKQWmkTiUth7cqX6wokkHpp48Xt6+NXEwUODluyj0B6pI0VV/8ng/x8fpfYvoy5sjAC6ZN2TdzWVmBqShg2tkMC9hFIr7T29cWVSUAsAUorNlo2JpUApZWaLPsSS4DSio2WjUklQGmlJsu+xBKgtGKjZWNSCVBaqcmyL7EEKK3YaNmYVAKUVmqy7EssAUorNlo2JpUApZWaLPsSS4DSio2WjUkl8BuoZ4g8nRY/OQAAAABJRU5ErkJggg==;" vertex="1" parent="1">
          <mxGeometry x="720" y="180" width="60.06" height="106.94" as="geometry" />
        </mxCell>
        <mxCell id="_MqUPr8f-RAkEZIioMhW-10" value="3.3 V&amp;nbsp;&lt;br&gt;pin X to pin 2" style="edgeStyle=orthogonalEdgeStyle;rounded=0;orthogonalLoop=1;jettySize=auto;html=1;exitX=0.75;exitY=1;exitDx=0;exitDy=0;entryX=0;entryY=0.421;entryDx=0;entryDy=0;entryPerimeter=0;" edge="1" parent="1" source="_MqUPr8f-RAkEZIioMhW-7" target="_MqUPr8f-RAkEZIioMhW-1">
          <mxGeometry relative="1" as="geometry">
            <Array as="points">
              <mxPoint x="270" y="210" />
            </Array>
          </mxGeometry>
        </mxCell>
        <mxCell id="_MqUPr8f-RAkEZIioMhW-12" value="SCL&lt;br&gt;pin X to pin 11" style="edgeStyle=orthogonalEdgeStyle;rounded=0;orthogonalLoop=1;jettySize=auto;html=1;exitX=0.25;exitY=1;exitDx=0;exitDy=0;entryX=0;entryY=0.593;entryDx=0;entryDy=0;entryPerimeter=0;" edge="1" parent="1" source="_MqUPr8f-RAkEZIioMhW-7" target="_MqUPr8f-RAkEZIioMhW-1">
          <mxGeometry x="-0.1838" y="5" relative="1" as="geometry">
            <Array as="points">
              <mxPoint x="270" y="280" />
              <mxPoint x="430" y="280" />
              <mxPoint x="430" y="243" />
            </Array>
            <mxPoint as="offset" />
          </mxGeometry>
        </mxCell>
        <mxCell id="_MqUPr8f-RAkEZIioMhW-13" value="GND&lt;br&gt;pin X to pin 12" style="edgeStyle=orthogonalEdgeStyle;rounded=0;orthogonalLoop=1;jettySize=auto;html=1;exitX=1;exitY=1;exitDx=0;exitDy=0;entryX=0;entryY=1;entryDx=0;entryDy=0;" edge="1" parent="1" source="_MqUPr8f-RAkEZIioMhW-7" target="_MqUPr8f-RAkEZIioMhW-2">
          <mxGeometry x="0.1429" y="20" relative="1" as="geometry">
            <Array as="points">
              <mxPoint x="270" y="160" />
              <mxPoint x="310" y="160" />
              <mxPoint x="310" y="180" />
            </Array>
            <mxPoint as="offset" />
          </mxGeometry>
        </mxCell>
        <mxCell id="_MqUPr8f-RAkEZIioMhW-14" value="HDMI" style="rounded=0;whiteSpace=wrap;html=1;" vertex="1" parent="1">
          <mxGeometry x="540" y="510" width="60" height="60" as="geometry" />
        </mxCell>
        <mxCell id="_MqUPr8f-RAkEZIioMhW-15" value="header" style="rounded=0;whiteSpace=wrap;html=1;" vertex="1" parent="1">
          <mxGeometry x="500" y="600" width="60" height="30" as="geometry" />
        </mxCell>
        <mxCell id="_MqUPr8f-RAkEZIioMhW-19" style="edgeStyle=orthogonalEdgeStyle;rounded=0;orthogonalLoop=1;jettySize=auto;html=1;exitX=0;exitY=0.5;exitDx=0;exitDy=0;entryX=1;entryY=0.5;entryDx=0;entryDy=0;startArrow=classic;startFill=1;" edge="1" parent="1" source="_MqUPr8f-RAkEZIioMhW-18" target="_MqUPr8f-RAkEZIioMhW-14">
          <mxGeometry relative="1" as="geometry" />
        </mxCell>
        <mxCell id="_MqUPr8f-RAkEZIioMhW-20" value="SCL" style="edgeStyle=orthogonalEdgeStyle;rounded=0;orthogonalLoop=1;jettySize=auto;html=1;exitX=1;exitY=0.25;exitDx=0;exitDy=0;entryX=1;entryY=0.75;entryDx=0;entryDy=0;startArrow=classic;startFill=1;" edge="1" parent="1" source="_MqUPr8f-RAkEZIioMhW-18" target="_MqUPr8f-RAkEZIioMhW-1">
          <mxGeometry relative="1" as="geometry">
            <Array as="points">
              <mxPoint x="800" y="525" />
              <mxPoint x="800" y="273" />
            </Array>
          </mxGeometry>
        </mxCell>
        <mxCell id="_MqUPr8f-RAkEZIioMhW-21" value="SDA" style="edgeStyle=orthogonalEdgeStyle;rounded=0;orthogonalLoop=1;jettySize=auto;html=1;exitX=1;exitY=0.5;exitDx=0;exitDy=0;entryX=1;entryY=0.5;entryDx=0;entryDy=0;startArrow=classic;startFill=1;" edge="1" parent="1" source="_MqUPr8f-RAkEZIioMhW-18" target="_MqUPr8f-RAkEZIioMhW-1">
          <mxGeometry relative="1" as="geometry">
            <Array as="points">
              <mxPoint x="810" y="540" />
              <mxPoint x="810" y="225" />
            </Array>
          </mxGeometry>
        </mxCell>
        <mxCell id="_MqUPr8f-RAkEZIioMhW-22" value="GND" style="edgeStyle=orthogonalEdgeStyle;rounded=0;orthogonalLoop=1;jettySize=auto;html=1;exitX=1;exitY=0.75;exitDx=0;exitDy=0;entryX=1;entryY=0.25;entryDx=0;entryDy=0;endArrow=none;endFill=0;" edge="1" parent="1" source="_MqUPr8f-RAkEZIioMhW-18" target="_MqUPr8f-RAkEZIioMhW-1">
          <mxGeometry x="-0.8424" y="-15" relative="1" as="geometry">
            <Array as="points">
              <mxPoint x="820" y="555" />
              <mxPoint x="820" y="178" />
            </Array>
            <mxPoint as="offset" />
          </mxGeometry>
        </mxCell>
        <mxCell id="_MqUPr8f-RAkEZIioMhW-18" value="HDMI&lt;br&gt;Breakout" style="rounded=0;whiteSpace=wrap;html=1;" vertex="1" parent="1">
          <mxGeometry x="660" y="510" width="60" height="60" as="geometry" />
        </mxCell>
      </root>
    </mxGraphModel>
  </diagram>
</mxfile>
